
<svg version="1.1" id="Шар_1" 	 xmlns="http://www.w3.org/2000/svg" xmlns:xlink="http://www.w3.org/1999/xlink" x="0px" y="0px" width="48px" height="48px"
	 viewBox="0 0 48 48" enable-background="new 0 0 48 48" xml:space="preserve">
<polygon fill="#231F20" points="45.406,27.029 48,25.09 45.602,22.915 47.79,20.523 45.023,18.841 46.71,16.08 43.672,14.954 
	44.805,11.919 41.618,11.386 42.156,8.197 38.922,8.275 38.852,5.037 35.688,5.732 35.008,2.564 32.04,3.848 30.773,0.869 
	28.094,2.691 26.282,0 24,2.298 21.718,0 19.906,2.691 17.226,0.869 15.96,3.848 12.992,2.564 12.312,5.732 9.148,5.037 
	9.078,8.275 5.844,8.197 6.382,11.386 3.196,11.919 4.328,14.954 1.296,16.08 2.984,18.841 0.218,20.523 2.398,22.915 0,25.09 
	2.594,27.029 0.648,29.619 3.562,31.025 2.14,33.936 5.274,34.773 4.43,37.895 7.656,38.12 7.422,41.357 10.632,40.96 
	11.008,44.182 14.094,43.188 15.07,46.277 17.906,44.714 19.454,47.568 21.946,45.497 24,48 26.055,45.497 28.546,47.568 
	30.094,44.714 32.93,46.277 33.914,43.188 36.992,44.182 37.368,40.96 40.586,41.357 40.344,38.12 43.578,37.895 42.734,34.773 
	45.859,33.936 44.438,31.025 47.352,29.619 "/>
</svg>
