
<svg version="1.1" id="Шар_1"	 xmlns="http://www.w3.org/2000/svg" xmlns:xlink="http://www.w3.org/1999/xlink" x="0px" y="0px" width="48px" height="65.271px"
	 viewBox="0 0 48 65.271" enable-background="new 0 0 48 65.271" xml:space="preserve">
<path d="M34.588,65.271h-0.02H0.922c-0.261,0-0.512-0.111-0.687-0.307c-0.176-0.196-0.258-0.457-0.229-0.719l5.747-52.133
	c0.052-0.468,0.447-0.822,0.918-0.822h8.065V7.622C14.736,3.42,18.155,0,22.357,0c0.701,0,1.381,0.096,2.026,0.274
	C25.028,0.096,25.708,0,26.409,0c4.201,0,7.62,3.42,7.62,7.622v3.669h8.576c0.479,0,0.878,0.366,0.92,0.844l4.472,52.132
	c0.022,0.246-0.055,0.5-0.231,0.698c-0.164,0.181-0.382,0.283-0.608,0.304h-0.003h-0.003H47.15h-0.003h-0.004
	c-0.001,0-0.002,0-0.002,0.002h-0.003h-0.003h-0.006h-0.002h-0.004h-0.002h-0.004l0,0c-0.017,0.001-0.031,0.001-0.048,0.001H34.607
	H34.588z M36.095,63.423h8.565l-5.885-5.273L36.095,63.423z M1.954,63.423h31.779l2.564-34.209c0.002-0.012,0.002-0.022,0.002-0.035
	l1.203-16.039h-7.523v3.027c0,0.509-0.414,0.923-0.925,0.923s-0.923-0.414-0.923-0.923V13.14H16.584v3.027
	c0,0.509-0.414,0.923-0.925,0.923c-0.51,0-0.923-0.414-0.923-0.923V13.14H7.499L1.954,63.423z M39.403,56.229l6.555,5.875
	L41.756,13.14h-2.401l-1.21,16.142L39.403,56.229z M37.004,44.486l-1.148,15.332l1.709-3.359L37.004,44.486z M29.979,11.291h2.203
	V7.622c0-2.836-2.055-5.199-4.751-5.684c1.562,1.396,2.548,3.427,2.548,5.684V11.291z M20.634,11.291h7.498V7.622
	c0-2.472-1.562-4.586-3.749-5.407c-2.188,0.821-3.749,2.936-3.749,5.407V11.291z M16.584,11.291h2.203V7.622
	c0-2.257,0.986-4.287,2.548-5.684c-2.697,0.484-4.751,2.848-4.751,5.684V11.291z M13.437,35.781l6.428,8.5v-1.745l-4.693-6.255
	h4.693v-1h-4.693l1.902-3h2.791v-1h-3.513L13.437,35.781z M24.866,35.281v1h2.096l-5.096,6v-10h4v-1h-5v14l8.369-10H24.866z"/>
</svg>
