
<svg version="1.1" id="Шар_1" 	 xmlns="http://www.w3.org/2000/svg" xmlns:xlink="http://www.w3.org/1999/xlink" x="0px" y="0px" width="13.018px" height="16px"
	 viewBox="0 0 13.018 16" enable-background="new 0 0 13.018 16" xml:space="preserve">

<path fill="#010202" d="M12.965,14.932l-0.794-12.28C12.154,2.386,11.934,2,11.666,2H9.561v0.031C9.561,0.636,8.314,0,6.919,0h-0.87
	C4.653,0,3.56,0.636,3.56,2.031V2H1.302C1.035,2,0.814,2.386,0.797,2.652L0.001,14.871c-0.009,0.141,0.04,0.572,0.136,0.674
	C0.233,15.646,0.366,16,0.506,16h12.055v-0.25c0,0,0.457-0.352,0.457-0.631C13.018,15.098,12.967,14.952,12.965,14.932 M4.56,2.031
	C4.56,1.194,5.211,1,6.049,1h0.87c0.838,0,1.642,0.194,1.642,1.031V2h-4V2.031z M1.047,14L1.776,3H3.56v0.822
	c0,0.184-0.629,0.559-0.629,0.991c0,0.614,0.489,1.114,1.103,1.114c0.614,0,1.124-0.5,1.124-1.114c0-0.432-0.598-0.807-0.598-0.991
	V3h4v0.822c0,0.184-0.668,0.559-0.668,0.991c0,0.614,0.469,1.114,1.083,1.114c0.614,0,1.153-0.5,1.153-1.114
	c0-0.432-0.567-0.807-0.567-0.991V3h1.631l0.729,11H1.047z"/>
</svg>
