<?xml version="1.0" encoding="utf-8"?>
<!-- Generator: Adobe Illustrator 19.0.1, SVG Export Plug-In . SVG Version: 6.00 Build 0)  -->
<!DOCTYPE svg PUBLIC "-//W3C//DTD SVG 1.1//EN" "http://www.w3.org/Graphics/SVG/1.1/DTD/svg11.dtd">
<svg version="1.1" xmlns="http://www.w3.org/2000/svg" xmlns:xlink="http://www.w3.org/1999/xlink" x="0px" y="0px"
	 viewBox="0 0 96 96" style="enable-background:new 0 0 96 96;" xml:space="preserve">
<style type="text/css">
	.st0{fill:#A3A3A3;}
	.st1{fill:#FFC847;}
	.st2{display:none;}
</style>
<g id="laces">
</g>
<g id="necklace">
</g>
<g id="amulets">
</g>
<g id="crosses">
</g>
<g id="pendants">
</g>
<g id="chains">
</g>
<g id="bracelets">
</g>
<g id="wedding-rings">
</g>
<g id="earring">
	<path class="st1" d="M32.2,82.5c0.3,0.3,0.7,0.4,1.1,0.4c0.4,0,0.8-0.1,1.1-0.4c2.9-2.9,11-10.9,11.1-11.1c3.4-3.4,3.4-8.8,0-12.2
		c-1.7-1.7-3.9-2.5-6.1-2.5c-2.2,0-4.4,0.8-6.1,2.5c-1.7-1.7-3.9-2.5-6.1-2.5c-2.2,0-4.4,0.8-6.1,2.5c-3.4,3.4-3.4,8.8,0,12.2
		C21.2,71.6,29.2,79.6,32.2,82.5L32.2,82.5z"/>
	<path class="st0" d="M76.8,63.7l-0.7,8.7c0,0-20.3-3.6-21-9.9c-0.7-6.2,1.9-29.9,1.9-29.9s0.2-1,1.5-1c1.5,0,1.6,1,1.6,1
		S57.6,57,61.1,59.8C63.4,61.7,76.8,63.7,76.8,63.7z"/>
	<polygon class="st0" points="55.5,36.5 55.1,39.3 48,37.9 48.3,36.5 	"/>
	<path class="st1" d="M78.7,56.7l-1.9,24.8c0,0,0.8,3.4,1.9,0.8c2.1-5.1,3.3-9.3,4.2-16.5c0.6-4.4,0.8-6.6-0.9-8
		C80.8,56.7,78.7,56.7,78.7,56.7z"/>
	<path class="st0" d="M60.6,36.5c0,0,14.8,1,17.9,1.5c3.1,0.5,3.5,2.8,3.5,4.3c0,4.2-1.5,12.3-1.5,12.3h-1.6c0,0,1-10.6-0.2-12.3
		c-1.2-1.9-18.4-2.9-18.4-2.9L60.6,36.5z"/>
	<path class="st0" d="M29.8,53.8l1.8-21.2c0,0,0-1,1.5-1c1.4,0,1.7,0.9,1.7,0.9l1.8,21.4c0,0,0,1.6-3.4,1.6S29.8,53.8,29.8,53.8z"/>
</g>
<g id="men-rings">
</g>
<g id="women-rings">
</g>
<g id="brilliants-jewelery">
</g>
</svg>
