<?xml version="1.0" encoding="utf-8"?>
<!-- Generator: Adobe Illustrator 19.0.1, SVG Export Plug-In . SVG Version: 6.00 Build 0)  -->
<!DOCTYPE svg PUBLIC "-//W3C//DTD SVG 1.1//EN" "http://www.w3.org/Graphics/SVG/1.1/DTD/svg11.dtd">
<svg version="1.1" xmlns="http://www.w3.org/2000/svg" xmlns:xlink="http://www.w3.org/1999/xlink" x="0px" y="0px"
	 viewBox="0 0 96 96" style="enable-background:new 0 0 96 96;" xml:space="preserve">
<style type="text/css">
	.st0{fill:#A3A3A3;}
	.st1{fill:#FFC847;}
	.st2{display:none;}
</style>
<g id="laces">
</g>
<g id="necklace">
</g>
<g id="amulets">
</g>
<g id="crosses">
</g>
<g id="pendants">
</g>
<g id="chains">
</g>
<g id="bracelets">
</g>
<g id="wedding-rings">
</g>
<g id="earring">
</g>
<g id="men-rings">
	<path class="st0" d="M48,24.9c-8.7,0-19.4,1.7-23.6,6.2c-1.6,1.7-2.8,8.6-3.3,11c-0.6,3.2-1.1,8.2-1.1,12.8c0,15.5,12.5,28,28,28
		c15.5,0,28-12.5,28-28c0-4.6-0.5-9.7-1.1-12.8c-0.5-2.3-1.5-9.1-3.1-10.8C67.5,26.8,56.8,24.9,48,24.9z M48,80.9
		c-13.3,0-24-10.7-24-24s10.7-24,24-24c13.3,0,24,10.7,24,24S61.3,80.9,48,80.9z"/>
	<path class="st1" d="M48,23.2c8.8,0,19.5,1.8,24,6.3c-0.3-1-0.7-3.9-1-4.3c-4.1-4.4-14.5-6.2-23-6.2c-8.4,0-18.7,1.7-22.8,6
		c-0.4,0.4-0.8,3.2-1.1,4.3C28.6,25,39.2,23.2,48,23.2z"/>
</g>
<g id="women-rings">
</g>
<g id="brilliants-jewelery">
</g>
</svg>
