<?xml version="1.0" encoding="utf-8"?>
<!-- Generator: Adobe Illustrator 19.0.1, SVG Export Plug-In . SVG Version: 6.00 Build 0)  -->
<!DOCTYPE svg PUBLIC "-//W3C//DTD SVG 1.1//EN" "http://www.w3.org/Graphics/SVG/1.1/DTD/svg11.dtd">
<svg version="1.1" xmlns="http://www.w3.org/2000/svg" xmlns:xlink="http://www.w3.org/1999/xlink" x="0px" y="0px"
	 viewBox="0 0 96 96" style="enable-background:new 0 0 96 96;" xml:space="preserve">
<style type="text/css">
	.st0{fill:#A3A3A3;}
	.st1{fill:#FFC847;}
	.st2{display:none;}
</style>
<g id="laces">
</g>
<g id="necklace">
</g>
<g id="amulets">
</g>
<g id="crosses">
</g>
<g id="pendants">
</g>
<g id="chains">
</g>
<g id="bracelets">
</g>
<g id="wedding-rings">
	<path class="st2" d="M59.9,41.3c-11.6,0-21,9.4-21,21s9.4,21,21,21c11.6,0,21-9.4,21-21S71.5,41.3,59.9,41.3z M59.9,81.8
		c-9.9,0-18-8.1-18-18s8.1-18,18-18c9.9,0,18,8.1,18,18S69.9,81.8,59.9,81.8z"/>
	<g>
		<path class="st1" d="M61.4,41.3c-1.6,0-3.1,0.2-4.6,0.5c1.1,1.2,2.1,2.6,3,4.1c0.5,0,1.1-0.1,1.6-0.1c9.9,0,18,8.1,18,18
			s-8.1,18-18,18c-9.9,0-18-8.1-18-18c0-6.3,3.2-11.8,8.1-15c-0.9-1.1-2-2.1-3.2-2.9c-4.8,3.8-7.9,9.8-7.9,16.4c0,11.6,9.4,21,21,21
			s21-9.4,21-21C82.4,50.7,73,41.3,61.4,41.3z"/>
		<path class="st0" d="M37.6,35.2c-13.3,0-24,10.7-24,24c0,13.3,10.7,24,24,24c3.5,0,6.8-0.7,9.7-2.1c-0.2-0.1-0.4-0.3-0.6-0.4
			c-0.4-0.3-0.8-0.6-1.1-0.9c-2.5,1.1-5.2,1.7-8,1.7c-11.4,0-20.6-9.2-20.6-20.6s9.2-20.6,20.6-20.6c11.4,0,20.6,9.2,20.6,20.6
			c0,5.6-2.8,11.2-6.3,14.9c0.5,0.5,1.1,1,1.7,1.4c4.6-4.4,8.1-11.2,8.1-18C61.6,45.9,50.9,35.2,37.6,35.2z"/>
	</g>
</g>
<g id="earring">
</g>
<g id="men-rings">
</g>
<g id="women-rings">
</g>
<g id="brilliants-jewelery">
</g>
</svg>
