<?xml version="1.0" encoding="utf-8"?>
<!-- Generator: Adobe Illustrator 19.0.1, SVG Export Plug-In . SVG Version: 6.00 Build 0)  -->
<!DOCTYPE svg PUBLIC "-//W3C//DTD SVG 1.1//EN" "http://www.w3.org/Graphics/SVG/1.1/DTD/svg11.dtd">
<svg version="1.1" xmlns="http://www.w3.org/2000/svg" xmlns:xlink="http://www.w3.org/1999/xlink" x="0px" y="0px"
	 viewBox="0 0 96 96" style="enable-background:new 0 0 96 96;" xml:space="preserve">
<style type="text/css">
	.st0{fill:#A3A3A3;}
	.st1{fill:#FFC847;}
	.st2{display:none;}
</style>
<g id="laces">
</g>
<g id="necklace">
</g>
<g id="amulets">
</g>
<g id="crosses">
</g>
<g id="pendants">
</g>
<g id="chains">
</g>
<g id="bracelets">
</g>
<g id="wedding-rings">
</g>
<g id="earring">
</g>
<g id="men-rings">
</g>
<g id="women-rings">
</g>
<g id="brilliants-jewelery">
	<g>
		<g>
			<polygon class="st1" points="52.5,21.4 43.5,21.4 48,35.5 			"/>
			<polygon class="st1" points="41.7,21.4 35.5,21.4 45.9,34.3 			"/>
			<polygon class="st1" points="60.8,19.8 56.8,13.1 51.6,13.1 54.2,19.8 			"/>
			<polygon class="st1" points="52.4,19.8 49.8,13.1 46.2,13.1 43.6,19.8 			"/>
			<polygon class="st1" points="50.1,34.3 54.3,21.4 60.5,21.4 			"/>
			<polygon class="st1" points="44.4,13.1 39.2,13.1 35.2,19.8 41.8,19.8 			"/>
		</g>
		<path class="st0" d="M58.2,28.9L54,33.8C64.4,36.5,72,45.8,72,57c0,13.3-10.7,24-24,24S24,70.3,24,57c0-11.2,7.6-20.6,18-23.2
			l-4.1-4.9C27.4,33,20,43.1,20,55c0,15.5,12.5,28,28,28s28-12.5,28-28C76,43.1,68.6,33,58.2,28.9z"/>
	</g>
</g>
</svg>
