<?xml version="1.0" encoding="utf-8"?>
<!-- Generator: Adobe Illustrator 19.0.1, SVG Export Plug-In . SVG Version: 6.00 Build 0)  -->
<!DOCTYPE svg PUBLIC "-//W3C//DTD SVG 1.1//EN" "http://www.w3.org/Graphics/SVG/1.1/DTD/svg11.dtd">
<svg version="1.1" xmlns="http://www.w3.org/2000/svg" xmlns:xlink="http://www.w3.org/1999/xlink" x="0px" y="0px"
	 viewBox="0 0 96 96" style="enable-background:new 0 0 96 96;" xml:space="preserve">
<style type="text/css">
	.st0{fill:#A3A3A3;}
	.st1{fill:#FFC847;}
	.st2{display:none;}
</style>
<g id="laces">
</g>
<g id="necklace">
</g>
<g id="amulets">
</g>
<g id="crosses">
</g>
<g id="pendants">
</g>
<g id="chains">
</g>
<g id="bracelets">
	<g>
		<circle class="st0" cx="47.6" cy="37.7" r="3.1"/>
		<circle class="st0" cx="53.7" cy="38.1" r="3.1"/>
		<circle class="st0" cx="59.7" cy="39" r="3.1"/>
		<circle class="st0" cx="65.6" cy="40.8" r="3.1"/>
		<circle class="st0" cx="71.1" cy="43.2" r="3.1"/>
		<circle class="st0" cx="76.1" cy="46.7" r="3.1"/>
		<circle class="st0" cx="80.1" cy="51.3" r="3.1"/>
		<circle class="st0" cx="82.2" cy="57" r="3.1"/>
		<circle class="st0" cx="81.4" cy="62.9" r="3.1"/>
		<circle class="st0" cx="78.3" cy="68.2" r="3.1"/>
		<circle class="st0" cx="73.8" cy="72.1" r="3.1"/>
		<circle class="st0" cx="68.4" cy="75" r="3.1"/>
		<circle class="st0" cx="62.7" cy="77.1" r="3.1"/>
		<circle class="st1" cx="56.8" cy="78.6" r="3.1"/>
		<circle class="st0" cx="50.7" cy="79.1" r="3.1"/>
		<circle class="st0" cx="44.6" cy="79.1" r="3.1"/>
		<circle class="st0" cx="38.6" cy="78.5" r="3.1"/>
		<circle class="st0" cx="32.7" cy="77.2" r="3.1"/>
		<circle class="st0" cx="26.9" cy="75.1" r="3.1"/>
		<circle class="st0" cx="21.6" cy="72.2" r="3.1"/>
		<circle class="st0" cx="16.9" cy="68.2" r="3.1"/>
		<circle class="st0" cx="13.9" cy="63" r="3.1"/>
		<circle class="st0" cx="13.1" cy="57.1" r="3.1"/>
		<circle class="st0" cx="15" cy="51.4" r="3.1"/>
		<circle class="st0" cx="19" cy="46.8" r="3.1"/>
		<circle class="st0" cx="24" cy="43.3" r="3.1"/>
		<circle class="st0" cx="29.6" cy="40.8" r="3.1"/>
		<circle class="st0" cx="35.4" cy="39.1" r="3.1"/>
		<circle class="st0" cx="41.4" cy="38.1" r="3.1"/>
	</g>
</g>
<g id="wedding-rings">
</g>
<g id="earring">
</g>
<g id="men-rings">
</g>
<g id="women-rings">
</g>
<g id="brilliants-jewelery">
</g>
</svg>
