<?xml version="1.0" encoding="utf-8"?>
<!-- Generator: Adobe Illustrator 19.0.1, SVG Export Plug-In . SVG Version: 6.00 Build 0)  -->
<!DOCTYPE svg PUBLIC "-//W3C//DTD SVG 1.1//EN" "http://www.w3.org/Graphics/SVG/1.1/DTD/svg11.dtd">
<svg version="1.1" xmlns="http://www.w3.org/2000/svg" xmlns:xlink="http://www.w3.org/1999/xlink" x="0px" y="0px"
	 viewBox="0 0 96 96" style="enable-background:new 0 0 96 96;" xml:space="preserve">
<style type="text/css">
	.st0{fill:#A3A3A3;}
	.st1{fill:#FFC847;}
	.st2{display:none;}
</style>
<g id="laces">
</g>
<g id="necklace">
</g>
<g id="amulets">
</g>
<g id="crosses">
</g>
<g id="pendants">
</g>
<g id="chains">
	<path class="st1" d="M38.8,58.5L38.8,58.5l-0.1-1.9c0-1-0.8-1.7-1.7-1.7H26.3c-0.8,0-1.5,0.6-1.7,1.3v6.3c0.2,0.8,0.9,1.3,1.7,1.3
		h10.7c1,0,1.7-0.8,1.7-1.7v-1.9h0.1V58.5z M26.3,62.1l0-5.5l10.7,0l0,5.5L26.3,62.1z"/>
	<g>
		<path class="st0" d="M24.6,58.5h-2.1v-1.9c0-1-0.8-1.7-1.7-1.7H10.1c-1,0-1.7,0.8-1.7,1.7v1.9H6.9c-0.5,0-0.9,0.4-0.9,0.9
			c0,0.5,0.4,0.9,0.9,0.9h1.5v1.9c0,1,0.8,1.7,1.7,1.7h10.7c1,0,1.7-0.8,1.7-1.7v-1.9h2.1V58.5z M10.1,62.1v-5.5l10.7,0l0,5.5
			L10.1,62.1z"/>
		<path class="st0" d="M89.1,58.5h-1.5v-1.9c0-1-0.8-1.7-1.7-1.7H75.2c-1,0-1.7,0.8-1.7,1.7v1.9h-0.5h-1.5v-1.9c0-1-0.8-1.7-1.7-1.7
			h0H58.9h0c-1,0-1.7,0.8-1.7,1.7v1.9h-1.5h-0.5v-1.9c0-1-0.8-1.7-1.7-1.7H42.7c-1,0-1.7,0.8-1.7,1.7v1.9h-0.7h-0.8h-0.7v1.8h0.7
			h0.8H41v1.9c0,1,0.8,1.7,1.7,1.7h10.7c1,0,1.7-0.8,1.7-1.7v-1.9h0.5h1.5v1.9c0,1,0.8,1.7,1.7,1.7h0h10.7h0c1,0,1.7-0.8,1.7-1.7
			v-1.9h1.5h0.5v1.9c0,1,0.8,1.7,1.7,1.7h10.7c1,0,1.7-0.8,1.7-1.7v-1.9h1.5c0.5,0,0.9-0.4,0.9-0.9C90,58.9,89.6,58.5,89.1,58.5z
			 M42.7,62.1v-5.5l10.7,0l0,5.5L42.7,62.1z M59,62.1v-5.5l10.7,0l0,5.5L59,62.1z M75.2,62.1l0-5.5l10.7,0l0,5.5L75.2,62.1z"/>
	</g>
</g>
<g id="bracelets">
</g>
<g id="wedding-rings">
</g>
<g id="earring">
</g>
<g id="men-rings">
</g>
<g id="women-rings">
</g>
<g id="brilliants-jewelery">
</g>
</svg>
