<?xml version="1.0" encoding="utf-8"?>
<!-- Generator: Adobe Illustrator 19.0.1, SVG Export Plug-In . SVG Version: 6.00 Build 0)  -->
<!DOCTYPE svg PUBLIC "-//W3C//DTD SVG 1.1//EN" "http://www.w3.org/Graphics/SVG/1.1/DTD/svg11.dtd">
<svg version="1.1" xmlns="http://www.w3.org/2000/svg" xmlns:xlink="http://www.w3.org/1999/xlink" x="0px" y="0px"
	 viewBox="0 0 96 96" style="enable-background:new 0 0 96 96;" xml:space="preserve">
<style type="text/css">
	.st0{fill:#A3A3A3;}
	.st1{fill:#FFC847;}
	.st2{display:none;}
</style>
<g id="laces">
</g>
<g id="necklace">
</g>
<g id="amulets">
	<g>
		<path class="st0" d="M57.4,62.3c-1.6-0.9-2.6-2.5-2.9-4.3l0,0c2.2-2.3,3.5-5.6,3.5-9.4c0-6.8-4.5-12.4-10-12.4
			c-5.5,0-10,5.5-10,12.4c0,3.8,1.4,7.1,3.5,9.4l0,0c-0.3,1.8-1.3,3.5-2.9,4.4c-5.3,3.2-8.8,9-8.8,15.6v2c0,1.5,1.2,2.7,2.7,2.7h31
			c1.5,0,2.7-1.2,2.7-2.7v-2C66.2,71.3,62.7,65.5,57.4,62.3L57.4,62.3z M57.4,62.3"/>
		<path class="st1" d="M37.9,60.2c0.3-0.5,0.5-1,0.7-1.6c-4.9-3.1-8.1-8.5-8.1-14.7c0-9.7,7.8-17.5,17.5-17.5
			c9.7,0,17.5,7.8,17.5,17.5c0,6.2-3.3,11.7-8.2,14.8c0.2,0.5,0.4,1.1,0.7,1.5c6.2-3.5,10.4-10.1,10.4-17.8
			c0-11.3-9.1-20.4-20.4-20.4c-11.3,0-20.4,9.1-20.4,20.4C27.6,50.1,31.8,56.7,37.9,60.2z"/>
	</g>
</g>
<g id="crosses">
</g>
<g id="pendants">
</g>
<g id="chains">
</g>
<g id="bracelets">
</g>
<g id="wedding-rings">
</g>
<g id="earring">
</g>
<g id="men-rings">
</g>
<g id="women-rings">
</g>
<g id="brilliants-jewelery">
</g>
</svg>
