<?xml version="1.0" encoding="utf-8"?>
<!-- Generator: Adobe Illustrator 19.0.1, SVG Export Plug-In . SVG Version: 6.00 Build 0)  -->
<!DOCTYPE svg PUBLIC "-//W3C//DTD SVG 1.1//EN" "http://www.w3.org/Graphics/SVG/1.1/DTD/svg11.dtd">
<svg version="1.1" xmlns="http://www.w3.org/2000/svg" xmlns:xlink="http://www.w3.org/1999/xlink" x="0px" y="0px"
	 viewBox="0 0 96 96" style="enable-background:new 0 0 96 96;" xml:space="preserve">
<style type="text/css">
	.st0{fill:#A3A3A3;}
	.st1{fill:#FFC847;}
	.st2{display:none;}
</style>
<g id="laces">
</g>
<g id="necklace">
	<g>
		<path class="st1" d="M49.1,69.8c-0.1-0.1-2.1-0.1-2.2,0l-5.2,5.2c-0.6,0.6-0.6,1.6,0,2.2l5.2,5.2c0.3,0.3,0.7,0.4,1.1,0.4
			c0.4,0,0.8-0.2,1.1-0.4l5.2-5.2c0.6-0.6,0.6-1.6,0-2.2L49.1,69.8z M53.2,76.1l-5.2,5.2c0,0-0.1,0-0.1,0c0,0-0.1,0-0.1,0l-5.2-5.2
			c0,0,0-0.1,0-0.2l5.2-5.2c0,0,0.1,0,0.1,0c0,0,0.1,0,0.1,0l5.2,5.2C53.3,76,53.3,76.1,53.2,76.1z"/>
		<path class="st1" d="M48.8,72.8c-0.2-0.2-0.5-0.3-0.8-0.3s-0.6,0.1-0.8,0.3l-2.4,2.4c-0.4,0.4-0.4,1.1,0,1.5l2.4,2.4
			c0.2,0.2,0.5,0.3,0.8,0.3s0.6-0.1,0.8-0.3l2.4-2.4c0.4-0.4,0.4-1.1,0-1.5L48.8,72.8z M48,78L46.1,76l1.9-1.9l1.9,1.9L48,78z
			 M48,78"/>
		<path class="st1" d="M55.7,66.6c-0.2-0.2-0.5-0.3-0.8-0.3s-0.6,0.1-0.8,0.3L51.8,69c-0.4,0.4-0.4,1.1,0,1.5l2.4,2.4
			c0.2,0.2,0.5,0.3,0.8,0.3s0.6-0.1,0.8-0.3l2.4-2.4c0.4-0.4,0.4-1.1,0-1.5L55.7,66.6z M55,71.7L53,69.7l1.9-1.9l1.9,1.9L55,71.7z
			 M55,71.7"/>
		<path class="st1" d="M41.8,66.6c-0.2-0.2-0.5-0.3-0.8-0.3s-0.6,0.1-0.8,0.3L37.9,69c-0.4,0.4-0.4,1.1,0,1.5l2.4,2.4
			c0.2,0.2,0.5,0.3,0.8,0.3s0.6-0.1,0.8-0.3l2.4-2.4c0.4-0.4,0.4-1.1,0-1.5L41.8,66.6z M41,71.7l-1.9-1.9l1.9-1.9l1.9,1.9L41,71.7z
			 M41,71.7"/>
		<path class="st1" d="M38,62.4c-0.1-0.1-0.3-0.2-0.4-0.2s-0.3,0.1-0.4,0.2l-1.4,1.4c-0.2,0.2-0.2,0.6,0,0.9l1.4,1.4
			c0.1,0.1,0.3,0.2,0.4,0.2s0.3-0.1,0.4-0.2l1.4-1.4c0.2-0.2,0.2-0.6,0-0.9L38,62.4z M37.5,65.4l-1.1-1.1l1.1-1.1l1.1,1.1L37.5,65.4
			z M37.5,65.4"/>
		<path class="st1" d="M58.9,62.4c-0.1-0.1-0.3-0.2-0.4-0.2s-0.3,0.1-0.4,0.2l-1.4,1.4c-0.2,0.2-0.2,0.6,0,0.9l1.4,1.4
			c0.1,0.1,0.3,0.2,0.4,0.2s0.3-0.1,0.4-0.2l1.4-1.4c0.2-0.2,0.2-0.6,0-0.9L58.9,62.4z M58.5,65.4l-1.1-1.1l1.1-1.1l1.1,1.1
			L58.5,65.4z M58.5,65.4"/>
	</g>
	<path class="st0" d="M47.3,71.3c-1-1.3-28.1-33.1-20.4-48.5c2.7-5.4,11.8-8.1,21.1-8.1c9.4,0,18.5,2.7,21.2,8.1
		C76.8,38.3,49.9,70,48.9,71.3L47.3,71.3z M48,16.7c-8.6,0-17.1,2.4-19.4,7c-6.4,12.9,15.3,39.7,19.4,45.4
		c4.1-5.7,25.7-32.5,19.3-45.3C65.1,19.1,56.6,16.7,48,16.7z"/>
</g>
<g id="amulets">
</g>
<g id="crosses">
</g>
<g id="pendants">
</g>
<g id="chains">
</g>
<g id="bracelets">
</g>
<g id="wedding-rings">
</g>
<g id="earring">
</g>
<g id="men-rings">
</g>
<g id="women-rings">
</g>
<g id="brilliants-jewelery">
</g>
</svg>
