<?xml version="1.0" encoding="utf-8"?>
<!-- Generator: Adobe Illustrator 19.0.1, SVG Export Plug-In . SVG Version: 6.00 Build 0)  -->
<!DOCTYPE svg PUBLIC "-//W3C//DTD SVG 1.1//EN" "http://www.w3.org/Graphics/SVG/1.1/DTD/svg11.dtd">
<svg version="1.1" xmlns="http://www.w3.org/2000/svg" xmlns:xlink="http://www.w3.org/1999/xlink" x="0px" y="0px"
	 viewBox="0 0 96 96" style="enable-background:new 0 0 96 96;" xml:space="preserve">
<style type="text/css">
	.st0{fill:#A3A3A3;}
	.st1{fill:#FFC847;}
	.st2{display:none;}
</style>
<g id="laces">
</g>
<g id="necklace">
</g>
<g id="amulets">
</g>
<g id="crosses">
</g>
<g id="pendants">
	<g>
		<path class="st0" d="M70.4,26.6c-0.9,0-1.6,0.7-1.6,1.6c0,3.1-5.6,6.5-14.2,7.7c0,0.2,0,0.4-0.1,0.6l-0.7,2.7
			C64.5,38,72,33.7,72,28.2C72,27.3,71.3,26.6,70.4,26.6L70.4,26.6z M70.4,26.6"/>
		<path class="st0" d="M41.7,36.5c0-0.2,0-0.3-0.1-0.5c-8.8-1.2-14.5-4.6-14.5-7.8c0-0.9-0.7-1.6-1.6-1.6c-0.9,0-1.6,0.7-1.6,1.6
			c0,5.5,7.6,9.9,18.4,11.1L41.7,36.5z M41.7,36.5"/>
		<path class="st0" d="M46.2,41.4c0.2,0.9,1,1.5,2,1.5c0.9,0,1.7-0.6,2-1.5l1.4-5.6c0.1-0.3,0-0.6-0.2-0.9c-0.2-0.2-0.5-0.4-0.8-0.4
			h-4.8c-0.3,0-0.6,0.1-0.8,0.4c-0.2,0.2-0.3,0.6-0.2,0.9L46.2,41.4z M46.2,41.4"/>
		<path class="st1" d="M47.2,66.2c0.2,0.2,0.6,0.4,0.9,0.4c0.3,0,0.7-0.1,0.9-0.4c2.5-2.5,9.2-9.2,9.4-9.3c2.8-2.8,2.8-7.4,0-10.3
			c-1.4-1.4-3.3-2.1-5.1-2.1c-1.9,0-3.7,0.7-5.1,2.1c-1.4-1.4-3.3-2.1-5.1-2.1c-1.9,0-3.7,0.7-5.1,2.1c-2.8,2.8-2.8,7.4,0,10.3
			C38,57,44.7,63.7,47.2,66.2L47.2,66.2z M47.2,69.4"/>
	</g>
</g>
<g id="chains">
</g>
<g id="bracelets">
</g>
<g id="wedding-rings">
</g>
<g id="earring">
</g>
<g id="men-rings">
</g>
<g id="women-rings">
</g>
<g id="brilliants-jewelery">
</g>
</svg>
