
<svg version="1.1" id="Шар_1" 	 xmlns="http://www.w3.org/2000/svg" xmlns:xlink="http://www.w3.org/1999/xlink" x="0px" y="0px" width="24px" height="15.493px"
	 viewBox="0 0 24 15.493" enable-background="new 0 0 24 15.493" xml:space="preserve">

<path d="M22.888,7.653L22.854,7.61c-0.318-0.347-0.673-0.802-1.045-1.281c-1.198-1.536-2.553-4.277-4.073-4.277h-2.883L14.85,0
	H0.073L0,9.414h14.823l-0.002,0.743H0.739v3.004H3.03c0.149,1.313,1.266,2.332,2.619,2.332c1.35,0,2.466-1.021,2.615-2.332h8.948
	c0.201,1.253,1.289,2.219,2.602,2.219c1.311,0,2.398-0.964,2.598-2.219h1.365l0.065-0.254C23.873,12.797,24.537,10.161,22.888,7.653
	 M5.649,14.814c-1.07,0-1.938-0.86-1.955-1.922v-0.066c0.017-1.063,0.885-1.924,1.955-1.924c1.078,0,1.954,0.879,1.954,1.956
	C7.604,13.937,6.726,14.814,5.649,14.814 M14.823,3.755h3.019c0.872,0,1.543,1.91,2.623,3.398h-5.642V3.755z M21.743,13
	c-0.127,0.956-0.94,1.699-1.932,1.699c-1.076,0-1.955-0.876-1.955-1.955c0-0.651,0.323-1.228,0.814-1.584
	c0.314-0.205,0.685-0.325,1.086-0.325c1.095,0,1.986,0.889,1.986,1.985V13z"/>
</svg>
