
<svg version="1.1" id="Шар_1"	 xmlns="http://www.w3.org/2000/svg" xmlns:xlink="http://www.w3.org/1999/xlink" x="0px" y="0px" width="80.914px"
	 height="62.871px" viewBox="0 0 80.914 62.871" enable-background="new 0 0 80.914 62.871" xml:space="preserve">
<path d="M67.255,49.519c-2.425,0-4.398,1.968-4.398,4.385c0,2.423,1.974,4.39,4.398,4.39s4.392-1.967,4.392-4.39
	C71.647,51.486,69.68,49.519,67.255,49.519 M67.255,56.078c-1.2,0-2.175-0.974-2.175-2.175c0-1.195,0.975-2.167,2.175-2.167
	c1.201,0,2.183,0.972,2.183,2.167C69.438,55.104,68.457,56.078,67.255,56.078 M21.058,49.892c-2.423,0-4.392,1.968-4.392,4.385
	c0,2.423,1.969,4.39,4.392,4.39c2.417,0,4.391-1.967,4.391-4.39C25.449,51.859,23.482,49.892,21.058,49.892 M21.058,56.457
	c-1.202,0-2.183-0.98-2.183-2.181c0-1.195,0.981-2.17,2.183-2.17c1.201,0,2.174,0.975,2.174,2.17
	C23.232,55.477,22.259,56.457,21.058,56.457 M18.51,39.266c-5.22,0-10.197-1.996-14.022-5.606l-1.872-1.769v13.575h2.43v9.798h7.472
	c0.489,4.281,4.129,7.607,8.54,7.607c4.405,0,8.044-3.333,8.534-7.607h29.186c0.655,4.086,4.203,7.234,8.484,7.234
	c4.273,0,7.822-3.142,8.472-7.234h4.454l0.214-0.829c0.097-0.358,2.264-8.956-3.115-17.137l-0.108-0.139
	c-1.043-1.132-2.196-2.616-3.412-4.178c-3.908-5.013-8.326-10.688-13.284-10.688h-9.404l-0.007-9.957H37.919l0.359,1.389
	c0.449,1.711,0.677,3.432,0.677,5.095C38.955,30.096,29.778,39.266,18.51,39.266 M60.828,24.586c2.845,0,8.3,6.229,11.82,11.083
	H50.981V24.586H60.828z M67.255,60.282c-3.515,0-6.38-2.858-6.38-6.379c0-2.127,1.058-4.007,2.658-5.165
	c1.022-0.67,2.231-1.063,3.542-1.063c3.569,0,6.478,2.898,6.478,6.477v0.587C73.139,57.857,70.488,60.282,67.255,60.282
	 M58.452,53.047h-7.498l0.027-0.96V37.885h23.883c0.207,0.248,0.414,0.483,0.622,0.704c3.853,5.924,3.293,12.235,2.935,14.451h-2.61
	c-0.436-4.336-4.102-7.733-8.555-7.733c-2.146,0-4.108,0.794-5.612,2.099c-1.706,1.382-2.895,3.363-3.191,5.635V53.047z
	 M21.058,60.655c-3.487,0-6.319-2.805-6.373-6.269v-0.216c0.054-3.471,2.886-6.275,6.373-6.275c3.521,0,6.379,2.866,6.379,6.381
	C27.437,57.797,24.572,60.655,21.058,60.655 M4.832,36.855c3.929,2.996,8.707,4.626,13.67,4.626
	c12.499,0,22.662-10.17,22.662-22.661c0-1.401-0.138-2.829-0.428-4.267h8.119l0.04,38.486H29.778
	c-0.545-4.268-4.205-7.581-8.624-7.581c-4.066,0-7.47,2.83-8.401,6.621c-0.057,0.234-0.112,0.469-0.152,0.697
	c-0.014,0.097-0.05,0.18-0.064,0.27H7.256v-7.371h3.3v-1.908H4.832V36.855z M18.766,37.532c10.349,0,18.766-8.423,18.766-18.773
	C37.532,8.417,29.115,0,18.766,0C8.415,0,0,8.417,0,18.759C0,29.109,8.422,37.532,18.766,37.532 M18.766,2.52
	c8.961,0,16.245,7.284,16.245,16.239c0,8.963-7.284,16.254-16.245,16.254c-8.956,0-16.247-7.291-16.247-16.254
	C2.519,9.804,9.81,2.52,18.766,2.52 M28.459,12.558c0.56-0.565,0.56-1.476,0-2.036c-0.566-0.565-1.485-0.565-2.043,0l-7.65,7.644
	l-7.65-7.644c-0.567-0.565-1.471-0.565-2.038,0c-0.559,0.561-0.559,1.471,0,2.036l8.666,8.666c0.29,0.283,0.656,0.421,1.022,0.421
	c0.373,0,0.746-0.131,1.021-0.421L28.459,12.558z"/>
</svg>
