<?xml version="1.0" encoding="utf-8"?>
<!-- Generator: Adobe Illustrator 16.0.0, SVG Export Plug-In . SVG Version: 6.00 Build 0)  -->
<!DOCTYPE svg PUBLIC "-//W3C//DTD SVG 1.1//EN" "http://www.w3.org/Graphics/SVG/1.1/DTD/svg11.dtd">
<svg version="1.1" id="Слой_1" xmlns="http://www.w3.org/2000/svg" xmlns:xlink="http://www.w3.org/1999/xlink" x="0px" y="0px"
	 width="13px" height="24.044px" viewBox="0 0 13 24.044" enable-background="new 0 0 13 24.044" xml:space="preserve">
<g>
	<path fill="#272727" d="M12.51,0.005L9.394,0C5.889,0,3.625,2.323,3.625,5.919v2.727H0.49C0.22,8.646,0,8.866,0,9.137v3.953
		c0,0.271,0.22,0.489,0.49,0.489h3.135v9.976c0,0.271,0.22,0.49,0.49,0.49h4.091c0.271,0,0.49-0.221,0.49-0.49v-9.976h3.665
		c0.271,0,0.491-0.218,0.491-0.489l0.001-3.953c0-0.131-0.052-0.255-0.144-0.347c-0.093-0.092-0.217-0.145-0.347-0.145H8.696V6.333
		c0-1.111,0.265-1.676,1.713-1.676h2.101c0.271,0,0.49-0.22,0.49-0.49V0.495C13,0.226,12.78,0.005,12.51,0.005z"/>
</g>
</svg>
