
<svg version="1.1" id="Слой_1" xmlns="http://www.w3.org/2000/svg" xmlns:xlink="http://www.w3.org/1999/xlink" x="0px" y="0px"
	 width="22px" height="20.021px" viewBox="0 0 22 20.021" enable-background="new 0 0 22 20.021" xml:space="preserve">
<g>
	<g id="_x32_7_1_">
		<g>
			<path fill="#4D2B16" d="M21.915,0.695C21.739,0.273,21.331,0,20.874,0H1.126c-0.457,0-0.865,0.273-1.04,0.695
				S0.007,1.601,0.33,1.923l7.814,7.828v9.793c0,0.264,0.214,0.477,0.477,0.477c0.264,0,0.476-0.213,0.476-0.477V9.554
				c0-0.127-0.05-0.248-0.139-0.337L1.003,1.249C0.932,1.177,0.95,1.1,0.966,1.061c0.016-0.042,0.059-0.107,0.16-0.107h19.748
				c0.101,0,0.143,0.067,0.16,0.107c0.017,0.04,0.032,0.117-0.038,0.188l-7.954,7.968c-0.088,0.089-0.138,0.21-0.138,0.337v7.129
				c0,0.265,0.212,0.477,0.476,0.477s0.476-0.213,0.476-0.477V9.75l7.814-7.827C21.993,1.601,22.088,1.118,21.915,0.695z"/>
		</g>
	</g>
</g>
</svg>
