
<svg version="1.1" id="Шар_1" 	 xmlns="http://www.w3.org/2000/svg" xmlns:xlink="http://www.w3.org/1999/xlink" x="0px" y="0px" width="15.556px" height="16px"
	 viewBox="0 0 15.556 16" enable-background="new 0 0 15.556 16" xml:space="preserve">
<path d="M8.204,9.135l-0.75-0.583c-0.228-0.189-0.541-0.44-0.541-0.897c0-0.46,0.313-0.753,0.583-1.022
	C8.37,5.943,9.243,5.211,9.243,3.669c0-1.588-0.998-2.423-1.477-2.818h1.29L10.411,0H6.309C5.184,0,3.561,0.266,2.374,1.246
	C1.478,2.019,1.042,3.083,1.042,4.042c0,1.629,1.249,3.277,3.455,3.277c0.209,0,0.437-0.021,0.666-0.042
	C5.06,7.528,4.956,7.737,4.956,8.092c0,0.646,0.332,1.042,0.624,1.418c-0.937,0.064-2.687,0.168-3.977,0.961
	C0.374,11.201,0,12.265,0,13.016C0,14.561,1.456,16,4.476,16c3.581,0,5.477-1.981,5.477-3.943C9.952,10.615,9.12,9.906,8.204,9.135
	 M5.477,6.735c-1.792,0-2.603-2.316-2.603-3.714c0-0.544,0.103-1.105,0.457-1.544c0.334-0.418,0.916-0.69,1.459-0.69
	c1.727,0,2.622,2.338,2.622,3.841c0,0.376-0.041,1.042-0.52,1.523C6.557,6.485,5.997,6.735,5.477,6.735 M5.497,15.125
	c-2.227,0-3.664-1.064-3.664-2.547c0-1.481,1.332-1.982,1.79-2.147c0.874-0.295,1.999-0.336,2.187-0.336
	c0.208,0,0.312,0,0.478,0.021c1.583,1.127,2.27,1.688,2.27,2.756C8.559,14.163,7.496,15.125,5.497,15.125"/>
<polygon points="13.462,6.703 13.462,4.617 12.433,4.617 12.433,6.703 10.349,6.703 10.349,7.745 12.433,7.745 12.433,9.844 
	13.462,9.844 13.462,7.745 15.556,7.745 15.556,6.703 "/>
</svg>
