<?xml version="1.0" encoding="utf-8"?>
<!-- Generator: Adobe Illustrator 16.0.0, SVG Export Plug-In . SVG Version: 6.00 Build 0)  -->
<!DOCTYPE svg PUBLIC "-//W3C//DTD SVG 1.1//EN" "http://www.w3.org/Graphics/SVG/1.1/DTD/svg11.dtd">
<svg version="1.1" id="Слой_1" xmlns="http://www.w3.org/2000/svg" xmlns:xlink="http://www.w3.org/1999/xlink" x="0px" y="0px"
	 width="23px" height="23.657px" viewBox="0 0 23 23.657" enable-background="new 0 0 23 23.657" xml:space="preserve">
<g>
	<g>
		<path fill="#272727" d="M14.971,0H9.328C6.814,0,5.073,0.551,3.507,1.845C2.275,2.908,1.54,4.453,1.54,5.977
			c0,2.349,1.791,4.845,5.11,4.845c0.318,0,0.672-0.033,0.983-0.062l-0.046,0.111c-0.133,0.32-0.26,0.622-0.26,1.092
			c0,0.916,0.441,1.481,0.87,2.027l0.054,0.069l-0.097,0.007c-1.37,0.094-3.92,0.269-5.783,1.414C0.171,16.79,0,18.692,0,19.245
			c0,2.195,2.046,4.412,6.619,4.412c5.316,0,8.098-2.934,8.098-5.83c0-2.144-1.256-3.201-2.59-4.324l-1.125-0.875
			c-0.348-0.289-0.78-0.647-0.78-1.311c0-0.653,0.433-1.084,0.815-1.464l0.039-0.04c1.215-0.958,2.593-2.042,2.593-4.39
			c0-2.359-1.475-3.579-2.185-4.165h1.873c0.022,0,0.046-0.006,0.064-0.019l1.613-1.014c0.046-0.029,0.067-0.085,0.052-0.138
			C15.073,0.036,15.024,0,14.971,0z M8.128,22.364c-3.24,0-5.418-1.514-5.418-3.767c0-1.471,0.891-2.54,2.645-3.175
			c1.404-0.474,3.218-0.496,3.236-0.496c0.307,0,0.461,0,0.706,0.03c2.269,1.614,3.358,2.462,3.358,4.075
			C12.655,21.088,10.92,22.364,8.128,22.364z M8.098,9.958c-2.72,0-3.849-3.576-3.849-5.49c0-0.973,0.222-1.721,0.677-2.285
			C5.42,1.565,6.267,1.166,7.082,1.166c2.497,0,3.878,3.357,3.878,5.676c0,0.366,0,1.48-0.769,2.253
			C9.674,9.611,8.832,9.958,8.098,9.958z"/>
		<path fill="#272727" d="M22.878,11.049h-2.973V8.087c0-0.067-0.056-0.123-0.122-0.123h-1.279c-0.067,0-0.122,0.055-0.122,0.123
			v2.962h-2.958c-0.067,0-0.122,0.055-0.122,0.122v1.296c0,0.066,0.055,0.121,0.122,0.121h2.958v2.982
			c0,0.066,0.055,0.122,0.122,0.122h1.279c0.066,0,0.122-0.056,0.122-0.122v-2.982h2.973c0.067,0,0.122-0.055,0.122-0.122v-1.295
			C23,11.104,22.945,11.049,22.878,11.049z"/>
	</g>
</g>
</svg>
