
<svg version="1.1" id="Слой_1" xmlns="http://www.w3.org/2000/svg" xmlns:xlink="http://www.w3.org/1999/xlink" x="0px" y="0px"
	 width="70px" height="45.734px" viewBox="0 0 70 45.734" enable-background="new 0 0 70 45.734" xml:space="preserve">
<g>
	<path fill="#4D2B16" d="M33.629,12.955l0.211-0.497l6.611,2.267c2.076,0.705,3.8,0.611,5.103-0.292
		c2.005-1.387,2.213-4.089,2.234-4.616c0.009-0.366-0.229-0.708-0.592-0.841L29.484,2.865c-1.671-0.57-3.586-0.453-5.161,0.321
		l-0.886,0.436c-1.201,0.585-2.639,0.669-3.891,0.23l-1.598-0.588c-0.043-0.028-0.075-0.044-0.112-0.055L8.755,0.047
		C8.665,0.016,8.572,0,8.479,0C8.113,0,7.786,0.237,7.665,0.589L0.039,22.812c-0.066,0.2-0.048,0.442,0.052,0.66
		c0.098,0.195,0.27,0.349,0.478,0.415l9.104,3.127c0.086,0.031,0.158,0.041,0.276,0.041c0.364,0,0.7-0.238,0.816-0.58l7.323-21.373
		l0.917,0.33c1.674,0.593,3.616,0.485,5.214-0.295l0.886-0.435c1.21-0.58,2.628-0.664,3.849-0.229L46.05,10.37l-0.144,0.524
		c-0.183,0.67-0.559,1.58-1.315,2.11c-0.828,0.576-2.034,0.602-3.572,0.073l-7.436-2.542c-0.221-0.076-0.475-0.051-0.684,0.063
		c-0.208,0.112-0.367,0.314-0.428,0.541c-0.131,0.446-1.308,4.218-4.571,5.967c-2.163,1.158-4.886,1.208-8.016,0.139
		c-0.452-0.155-0.94,0.099-1.095,0.542c-0.153,0.445,0.09,0.936,0.543,1.093c3.612,1.234,6.751,1.146,9.399-0.269
		C31.541,17.095,33.006,14.417,33.629,12.955z M9.423,25.104l-7.459-2.555L9.021,1.943l7.461,2.555L9.423,25.104z"/>
	<path fill="#4D2B16" d="M19.13,40.836c0.422,0.87,1.164,1.523,2.087,1.836c0.901,0.32,1.905,0.257,2.766-0.174l1.483-0.74
		l0.106,0.807c0.051,0.385,0.169,0.776,0.34,1.131c0.424,0.873,1.166,1.525,2.088,1.838c0.904,0.318,1.905,0.256,2.766-0.174
		l16.52-8.092c3.626-1.771,6.981-4.061,9.973-6.807l3.827-3.478l8.439-4.125c0.204-0.1,0.356-0.273,0.43-0.488
		c0.073-0.215,0.058-0.447-0.043-0.652L59.627,0.61c-0.104-0.208-0.276-0.362-0.483-0.428c-0.258-0.092-0.458-0.065-0.668,0.039
		l-8.632,4.229c-0.205,0.1-0.357,0.273-0.431,0.488c-0.073,0.215-0.058,0.447,0.043,0.652l10.038,20.522l-3.369,3.096
		c-2.847,2.612-6.063,4.809-9.563,6.529l-16.516,8.09c-0.441,0.221-0.969,0.255-1.47,0.088c-0.485-0.168-0.875-0.513-1.106-0.973
		c-0.224-0.449-0.256-0.973-0.089-1.475c0.169-0.485,0.514-0.875,0.974-1.105l9.242-4.52c0.205-0.101,0.357-0.273,0.431-0.488
		s0.058-0.447-0.043-0.652c-0.201-0.412-0.724-0.593-1.141-0.389l-13.596,6.652c-0.443,0.221-0.971,0.255-1.471,0.088
		c-0.485-0.169-0.875-0.514-1.104-0.973c-0.226-0.449-0.258-0.974-0.09-1.475c0.168-0.485,0.514-0.875,0.974-1.105l13.251-6.48
		c0.205-0.1,0.357-0.273,0.431-0.488s0.058-0.447-0.043-0.652c-0.201-0.412-0.723-0.594-1.141-0.389L19.166,36.77
		c-0.269,0.129-0.55,0.192-0.84,0.192c-0.735,0-1.399-0.405-1.732-1.06c-0.229-0.453-0.26-0.977-0.093-1.479
		c0.169-0.485,0.514-0.875,0.974-1.105l13.499-6.611c0.204-0.1,0.356-0.273,0.431-0.488c0.072-0.215,0.058-0.447-0.043-0.652
		c-0.202-0.412-0.725-0.594-1.142-0.389l-11.867,5.811c-0.945,0.453-2.107,0.045-2.573-0.867c-0.457-0.955-0.066-2.106,0.863-2.582
		l6.313-3.084c0.204-0.1,0.356-0.273,0.43-0.488s0.059-0.446-0.043-0.652c-0.201-0.411-0.723-0.591-1.142-0.388l-6.304,3.08
		c-0.872,0.424-1.526,1.165-1.842,2.087c-0.317,0.924-0.255,1.912,0.176,2.785c0.241,0.495,0.578,0.91,1.031,1.27l0.439,0.35
		l-0.334,0.45c-0.776,1.048-0.898,2.493-0.31,3.683c0.589,1.201,1.795,1.979,3.148,2.031l0.558,0.021v0.557
		C18.765,39.782,18.892,40.334,19.13,40.836z M51.369,5.61l7.084-3.474l9.574,19.562l-7.085,3.474L51.369,5.61z"/>
</g>
</svg>
