
<svg version="1.1" id="Шар_1" 	 xmlns="http://www.w3.org/2000/svg" xmlns:xlink="http://www.w3.org/1999/xlink" x="0px" y="0px" width="17px" height="14.867px"
	 viewBox="0 0 17 14.867" enable-background="new 0 0 17 14.867" xml:space="preserve">
<path fill="none" stroke="#010202" stroke-miterlimit="10" d="M4.767,0.5C2.411,0.5,0.5,2.41,0.5,4.767
	c0,0.587,0.261,1.271,0.744,2.067c0.408,0.671,0.975,1.422,1.679,2.241c0.441,0.513,0.93,1.046,1.46,1.597
	c0.825,0.854,1.708,1.705,2.59,2.514c0.309,0.283,0.596,0.539,0.853,0.768c0.091,0.079,0.323,0.281,0.327,0.285
	c0.1,0.086,0.224,0.129,0.347,0.129c0.124,0,0.248-0.043,0.348-0.129c0.004-0.004,0.236-0.206,0.326-0.285
	c0.258-0.229,0.545-0.484,0.854-0.768c0.882-0.809,1.766-1.66,2.59-2.514c0.53-0.551,1.02-1.084,1.46-1.597
	c0.704-0.819,1.271-1.57,1.679-2.241c0.482-0.796,0.744-1.48,0.744-2.067c0-2.357-1.91-4.267-4.267-4.267
	c-0.563,0-1.123,0.134-1.672,0.38C10.11,1.083,9.676,1.356,9.264,1.681C8.983,1.903,8.731,2.138,8.5,2.375
	C8.27,2.138,8.017,1.903,7.737,1.681C7.324,1.356,6.891,1.083,6.438,0.88C5.889,0.634,5.33,0.5,4.767,0.5z"/>
</svg>
