
<svg version="1.1" id="Слой_1" xmlns="http://www.w3.org/2000/svg" xmlns:xlink="http://www.w3.org/1999/xlink" x="0px" y="0px"
	 width="20.998px" height="21.003px" viewBox="0 0 20.998 21.003" enable-background="new 0 0 20.998 21.003" xml:space="preserve">
<g>
	<path fill="#4D2B16" d="M19.345,10.75c-0.133,4.764-4.049,8.6-8.845,8.6c-4.878,0-8.848-3.969-8.848-8.848
		c0-4.878,3.97-8.848,8.848-8.848c0.815,0,1.548,0.093,2.292,0.292l1.331-1.33C12.786,0.202,11.599,0,10.5,0C4.71,0,0,4.71,0,10.501
		s4.71,10.502,10.5,10.502c5.709,0,10.367-4.578,10.498-10.254H19.345z"/>
	<polygon fill="#4D2B16" points="9.426,12.142 6.094,8.81 4.938,9.964 9.426,14.451 19.824,4.052 18.669,2.898 	"/>
</g>
</svg>
