<?xml version="1.0" encoding="utf-8"?>
<!-- Generator: Adobe Illustrator 16.0.0, SVG Export Plug-In . SVG Version: 6.00 Build 0)  -->
<!DOCTYPE svg PUBLIC "-//W3C//DTD SVG 1.1//EN" "http://www.w3.org/Graphics/SVG/1.1/DTD/svg11.dtd">
<svg version="1.1" id="Слой_1" xmlns="http://www.w3.org/2000/svg" xmlns:xlink="http://www.w3.org/1999/xlink" x="0px" y="0px"
	 width="23px" height="23px" viewBox="0 0 23 23" enable-background="new 0 0 23 23" xml:space="preserve">
<g id="XMLID_13_">
	<path id="XMLID_17_" fill="#272727" d="M16.148,0H6.852C3.074,0,0,3.074,0,6.852v9.297C0,19.926,3.074,23,6.852,23h9.297
		C19.926,23,23,19.926,23,16.149V6.852C23,3.074,19.926,0,16.148,0z M20.687,16.149c0,2.506-2.032,4.537-4.538,4.537H6.852
		c-2.506,0-4.538-2.031-4.538-4.537V6.852c0-2.506,2.032-4.538,4.538-4.538h9.297c2.506,0,4.538,2.032,4.538,4.538V16.149
		L20.687,16.149z"/>
	<path id="XMLID_81_" fill="#272727" d="M11.5,5.551c-3.28,0-5.949,2.668-5.949,5.949c0,3.28,2.669,5.948,5.949,5.948
		s5.948-2.668,5.948-5.948C17.448,8.22,14.78,5.551,11.5,5.551z M11.5,15.135c-2.008,0-3.635-1.628-3.635-3.635
		S9.492,7.865,11.5,7.865s3.635,1.627,3.635,3.635S13.508,15.135,11.5,15.135z"/>
	<circle id="XMLID_83_" fill="#272727" cx="17.46" cy="5.596" r="1.425"/>
</g>
</svg>
