
<svg version="1.1" id="Шар_1" 	 xmlns="http://www.w3.org/2000/svg" xmlns:xlink="http://www.w3.org/1999/xlink" x="0px" y="0px" width="16px" height="16px"
	 viewBox="0 0 16 16" enable-background="new 0 0 16 16" xml:space="preserve">
<path fill="#010202" d="M14,7h-1.238c0.101,0,0.162,0.69,0.162,1.116c0,2.718-2.205,4.865-4.923,4.865
	c-2.719,0-4.924-2.118-4.924-4.837C3.076,7.719,3.137,7,3.238,7H2v6.538C2,13.878,2.121,14,2.461,14h11.078
	C13.878,14,14,13.878,14,13.538V7z M14,2.615C14,2.276,13.724,2,13.384,2h-1.768C11.275,2,11,2.276,11,2.615v1.77
	C11,4.724,11.275,5,11.617,5h1.768C13.724,5,14,4.724,14,4.385V2.615z M8,4.923C6.3,4.923,4.923,6.3,4.923,8
	c0,1.699,1.377,3.077,3.077,3.077c1.699,0,3.076-1.378,3.076-3.077C11.076,6.3,9.699,4.923,8,4.923 M14.154,16H1.845
	C0.826,16,0,15.173,0,14.153V1.846C0,0.826,0.826,0,1.845,0h12.309C15.173,0,16,0.826,16,1.846v12.308
	C16,15.173,15.173,16,14.154,16"/>
</svg>
