
<svg version="1.1" id="Шар_1" 	 xmlns="http://www.w3.org/2000/svg" xmlns:xlink="http://www.w3.org/1999/xlink" x="0px" y="0px" width="93.999px"
	 height="65.594px" viewBox="0 0 93.999 65.594" enable-background="new 0 0 93.999 65.594" xml:space="preserve">
<path d="M92.04,23.405h-7.219V1.959C84.821,0.877,83.944,0,82.862,0H1.959C0.877,0,0,0.877,0,1.959V56.18
	c0,1.082,0.877,1.959,1.959,1.959h35.439v5.534h-6.443c-1.082,0-1.96-0.123-1.96,0.959s0.878,0.958,1.96,0.958h24.207
	c1.082,0,1.959,0.124,1.959-0.958s-0.877-0.959-1.959-0.959h-6.443v-5.534H63.98v5.492c0,1.082,0.877,1.959,1.959,1.959H92.04
	c1.081,0,1.959-0.877,1.959-1.959V25.364C93.999,24.282,93.121,23.405,92.04,23.405 M92.082,56.222H65.898V25.322h26.184V56.222z
	 M82.904,1.917v21.488H65.939c-1.082,0-1.959,0.877-1.959,1.959v15.724H1.917V1.917H82.904z M46.801,63.673h-7.486v-5.534h7.486
	V63.673z M1.917,43.005H63.98v13.217H1.917V43.005z M65.898,58.139h26.184v5.534H65.898V58.139z M80.299,60.906
	c0,0.723-0.587,1.309-1.309,1.309c-0.723,0-1.311-0.586-1.311-1.309c0-0.725,0.588-1.31,1.311-1.31
	C79.712,59.597,80.299,60.182,80.299,60.906 M44.047,48.212c0,0.904-0.733,1.636-1.637,1.636c-0.904,0-1.637-0.731-1.637-1.636
	s0.733-1.637,1.637-1.637C43.314,46.575,44.047,47.308,44.047,48.212"/>
</svg>
