
<svg version="1.1" id="Слой_1" xmlns="http://www.w3.org/2000/svg" xmlns:xlink="http://www.w3.org/1999/xlink" x="0px" y="0px"
	 width="51px" height="50.999px" viewBox="0 0 51 50.999" enable-background="new 0 0 51 50.999" xml:space="preserve">
<g>
	<path fill="#4D2B16" d="M25.5,12.531c-7.151,0-12.969,5.818-12.969,12.969s5.817,12.969,12.968,12.969
		c4.593,0,8.886-2.466,11.205-6.435c0.243-0.417,0.103-0.954-0.314-1.198c-0.385-0.223-0.978-0.063-1.198,0.314
		c-2.007,3.434-5.721,5.566-9.692,5.566c-6.185,0-11.216-5.032-11.216-11.217c0-6.185,5.032-11.217,11.217-11.217
		c6.186,0,11.217,5.032,11.217,11.217c0,0.483,0.393,0.876,0.876,0.876c0.482,0,0.876-0.394,0.876-0.876
		C38.468,18.349,32.651,12.531,25.5,12.531z"/>
	<path fill="#4D2B16" d="M50.816,28.59c0.2-1.661,0.237-3.363,0.11-5.059C49.996,11.139,39.953,1.057,27.567,0.08
		C26.893,0.027,26.208,0,25.533,0c-6.834,0-13.25,2.652-18.065,7.468c-5.285,5.285-7.979,12.611-7.387,20.099
		c0.973,12.34,11.012,22.379,23.352,23.353c0.669,0.054,1.354,0.08,2.034,0.08c6.835,0,13.25-2.651,18.064-7.468
		c0.167-0.165,0.258-0.385,0.258-0.619c0-0.232-0.091-0.453-0.258-0.618c-0.311-0.312-0.926-0.313-1.238-0.001
		c-4.484,4.484-10.461,6.955-16.826,6.955c-0.631,0-1.269-0.025-1.896-0.075C12.081,48.268,2.732,38.919,1.827,27.43
		c-0.55-6.978,1.958-13.802,6.88-18.723c4.484-4.485,10.46-6.955,16.824-6.955c0.629,0,1.268,0.025,1.898,0.075
		c11.533,0.909,20.884,10.296,21.75,21.835c0.119,1.577,0.084,3.164-0.104,4.718c-0.219,1.813-1.317,3.396-2.937,4.232
		c-1.449,0.749-3.197,0.745-4.594-0.013c-0.396-0.216-0.976-0.039-1.188,0.353c-0.111,0.206-0.136,0.442-0.069,0.667
		c0.067,0.225,0.217,0.409,0.422,0.521c1.944,1.054,4.228,1.065,6.232,0.029C49.08,33.065,50.527,30.979,50.816,28.59z"/>
</g>
</svg>
