
<svg version="1.1" id="Шар_1" 	 xmlns="http://www.w3.org/2000/svg" xmlns:xlink="http://www.w3.org/1999/xlink" x="0px" y="0px" width="53.14px" height="71.93px"
	 viewBox="0 0 53.14 71.93" enable-background="new 0 0 53.14 71.93" xml:space="preserve">

<path fill="#231F20" d="M53.14,28.533c0-2.202-1.336-4.138-3.257-4.988c1.049-1.013,1.672-2.426,1.672-3.925
	c0-2.875-2.23-5.239-5.051-5.447c0.388-0.759,0.596-1.609,0.596-2.474c0-3.011-2.447-5.458-5.457-5.458
	c-0.586,0-1.162,0.093-1.709,0.275V6.503c0-3.006-2.448-5.452-5.458-5.452c-1.519,0-2.934,0.623-3.949,1.689
	C29.573,1.074,27.79,0,25.8,0c-2.383,0-4.439,1.567-5.171,3.727c-0.948-0.738-2.123-1.155-3.347-1.155c-2.854,0-5.203,2.202-5.438,5
	c-0.516-0.159-1.055-0.241-1.597-0.241c-3.011,0-5.458,2.448-5.458,5.456c0,0.77,0.164,1.523,0.473,2.22
	c-2.666,0.357-4.728,2.647-4.728,5.412c0,1.597,0.714,3.1,1.896,4.125C0.937,25.535,0,27.22,0,29.081
	c0,2.284,1.446,4.289,3.489,5.089c-0.751,0.952-1.175,2.142-1.175,3.377c0,3.092,2.601,5.597,5.706,5.451L4.315,62.021
	c-0.053,0.28,0.048,0.567,0.267,0.747C4.8,62.951,5.1,63,5.365,62.896l9.876-3.881l7.711,5.645c0.212,0.155,0.494,0.191,0.74,0.097
	c0.247-0.097,0.428-0.312,0.481-0.572l1.659-8.185l3.153,15.31c0.054,0.261,0.236,0.474,0.481,0.568
	c0.092,0.036,0.187,0.053,0.283,0.053c0.16,0,0.321-0.049,0.455-0.146l7.911-5.72l9.655,3.86c0.095,0.038,0.192,0.055,0.289,0.055
	h0.009c0.43,0,0.778-0.348,0.778-0.776c0-0.094-0.017-0.182-0.046-0.263l-4.802-23.405c0.151-0.508,0.228-1.028,0.228-1.552
	c0-0.517-0.071-1.023-0.211-1.511c0.198,0.021,0.397,0.032,0.6,0.032c3.008,0,5.456-2.445,5.456-5.454
	c0-1.175-0.378-2.299-1.054-3.223C51.384,33.23,53.14,31.084,53.14,28.533 M47.688,32.437c-0.122,0-0.228-0.006-0.329-0.019
	c-0.356-0.044-0.696,0.159-0.824,0.496c-0.127,0.334-0.01,0.714,0.284,0.918c1.063,0.73,1.696,1.935,1.696,3.221
	c0,2.149-1.749,3.898-3.899,3.898c-0.59,0-1.16-0.134-1.693-0.393c-0.302-0.146-0.688-0.067-0.909,0.17
	c-0.053,0.054-0.097,0.115-0.131,0.185c-0.133,0.258-0.11,0.571,0.061,0.809c0.478,0.66,0.729,1.443,0.729,2.265
	c0,0.422-0.071,0.844-0.211,1.256c-0.046,0.131-0.053,0.271-0.025,0.408l4.574,22.295l-8.711-3.484
	c-0.247-0.099-0.528-0.064-0.745,0.094l-7.283,5.262l-3.681-17.864c-0.076-0.361-0.393-0.621-0.762-0.621h-0.002
	c-0.371,0-0.688,0.262-0.763,0.625l-2.174,10.728l-7.074-5.178c-0.217-0.158-0.498-0.194-0.743-0.097l-8.956,3.518l3.447-17.701
	c0.02-0.12,0.042-0.235,0.076-0.388l0.123-0.631c0.052-0.267-0.036-0.536-0.232-0.72c-0.198-0.183-0.477-0.251-0.736-0.182
	c-0.342,0.093-0.687,0.142-1.022,0.142c-2.15,0-3.899-1.748-3.899-3.9c0-1.252,0.609-2.438,1.634-3.172
	c0.264-0.19,0.384-0.524,0.297-0.84c-0.086-0.313-0.359-0.539-0.684-0.568c-1.998-0.171-3.563-1.877-3.563-3.886
	c0-1.687,1.078-3.172,2.683-3.699c0.304-0.098,0.515-0.372,0.533-0.691c0.021-0.317-0.153-0.615-0.442-0.753
	c-1.38-0.653-2.239-2.003-2.239-3.52c0-2.153,1.751-3.903,3.9-3.903c0.181,0,0.362,0.014,0.557,0.041
	c0.319,0.046,0.635-0.107,0.792-0.391c0.158-0.281,0.124-0.631-0.083-0.878c-0.588-0.699-0.911-1.587-0.911-2.499
	c0-2.151,1.751-3.9,3.902-3.9c0.709,0,1.405,0.196,2.018,0.567c0.259,0.157,0.586,0.149,0.837-0.018
	c0.252-0.17,0.384-0.47,0.336-0.768c-0.04-0.251-0.057-0.447-0.057-0.637c0-2.151,1.75-3.904,3.901-3.904
	c1.27,0,2.466,0.629,3.2,1.684c0.194,0.278,0.544,0.398,0.865,0.302c0.323-0.098,0.545-0.393,0.553-0.73
	c0.042-2.111,1.792-3.828,3.899-3.828c1.789,0,3.343,1.218,3.78,2.961c0.078,0.314,0.342,0.546,0.662,0.584s0.633-0.124,0.78-0.411
	c0.679-1.284,2.001-2.084,3.451-2.084c2.153,0,3.904,1.748,3.904,3.897c0,0.381-0.06,0.766-0.172,1.146
	c-0.095,0.318,0.021,0.66,0.291,0.854c0.268,0.193,0.631,0.195,0.9,0.005c0.665-0.466,1.44-0.71,2.243-0.71
	c2.151,0,3.903,1.75,3.903,3.899c0,1.071-0.43,2.071-1.207,2.813c-0.235,0.224-0.306,0.57-0.178,0.87
	c0.025,0.061,0.057,0.114,0.097,0.169c0.188,0.266,0.52,0.388,0.836,0.306c0.359-0.095,0.688-0.14,1.007-0.14
	c2.15,0,3.9,1.752,3.9,3.905c0,1.513-0.892,2.901-2.271,3.539c-0.274,0.127-0.451,0.414-0.451,0.716
	c0,0.407,0.313,0.745,0.719,0.778c2.012,0.152,3.588,1.857,3.588,3.88C51.584,30.686,49.836,32.437,47.688,32.437 M26.572,12.494
	c-7.81,0-14.162,6.349-14.162,14.153c0,7.812,6.353,14.164,14.162,14.164c7.809,0,14.163-6.353,14.163-14.164
	C40.735,18.843,34.381,12.494,26.572,12.494 M26.572,39.256c-6.95,0-12.606-5.656-12.606-12.608c0-6.945,5.654-12.598,12.606-12.598
	c6.951,0,12.605,5.652,12.605,12.598C39.178,33.6,33.523,39.256,26.572,39.256 M6.697,18.007c-0.17-0.396-0.627-0.578-1.022-0.409
	c-0.133,0.058-1.316,0.593-1.728,1.825c-0.269,0.798-0.142,1.659,0.373,2.561c0.144,0.251,0.405,0.393,0.676,0.393
	c0.131,0,0.264-0.032,0.386-0.104c0.374-0.213,0.504-0.688,0.291-1.062c-0.286-0.496-0.369-0.929-0.253-1.287
	c0.189-0.579,0.851-0.887,0.872-0.898C6.685,18.855,6.866,18.399,6.697,18.007 M5.452,27.648c0.348-0.25,0.428-0.734,0.177-1.084
	c-0.249-0.35-0.735-0.43-1.085-0.181c-0.142,0.101-1.374,1.021-1.399,2.368c-0.01,0.557,0.194,1.384,1.213,2.166
	c0.141,0.109,0.309,0.162,0.474,0.162c0.232,0,0.466-0.105,0.617-0.305c0.263-0.34,0.199-0.828-0.143-1.091
	c-0.403-0.312-0.605-0.613-0.603-0.9C4.709,28.299,5.259,27.79,5.452,27.648 M7.721,38.07c-0.427-0.054-0.697-0.186-0.803-0.387
	c-0.223-0.424,0.07-1.26,0.245-1.6c0.201-0.38,0.055-0.851-0.323-1.051c-0.381-0.202-0.852-0.056-1.053,0.324
	C5.691,35.536,4.88,37.14,5.536,38.4c0.245,0.472,0.789,1.063,1.991,1.215c0.032,0.004,0.064,0.006,0.097,0.006
	c0.388,0,0.722-0.289,0.771-0.684C8.449,38.51,8.146,38.123,7.721,38.07 M12.613,54.533l-2.319,0.843l2.2-11.295
	c0.081-0.422-0.193-0.83-0.616-0.912c-0.422-0.084-0.831,0.194-0.913,0.615L8.503,56.43c-0.054,0.276,0.045,0.558,0.258,0.739
	c0.144,0.124,0.323,0.187,0.505,0.187c0.09,0,0.18-0.015,0.268-0.046l3.611-1.314c0.405-0.147,0.612-0.593,0.466-0.998
	C13.465,54.594,13.018,54.387,12.613,54.533 M34.282,62.462l-2.164,1.48l-2.547-11.842c-0.092-0.42-0.505-0.688-0.927-0.597
	c-0.419,0.089-0.688,0.504-0.597,0.926l2.793,12.973c0.055,0.255,0.231,0.464,0.472,0.559c0.095,0.038,0.191,0.057,0.288,0.057
	c0.155,0,0.31-0.048,0.44-0.137l3.119-2.134c0.354-0.243,0.446-0.729,0.204-1.083C35.12,62.31,34.637,62.219,34.282,62.462
	 M19.964,19.17c-0.067,0.051-6.574,5.11-1.843,13.168c0.144,0.247,0.403,0.384,0.671,0.384c0.134,0,0.27-0.034,0.393-0.106
	c0.37-0.219,0.496-0.695,0.277-1.066c-4.015-6.843,1.217-10.965,1.443-11.138c0.342-0.262,0.408-0.747,0.147-1.089
	C20.795,18.979,20.306,18.911,19.964,19.17"/>
</svg>
