
<svg version="1.1" id="Слой_1" xmlns="http://www.w3.org/2000/svg" xmlns:xlink="http://www.w3.org/1999/xlink" x="0px" y="0px"
	 width="21px" height="15.301px" viewBox="0 0 21 15.301" enable-background="new 0 0 21 15.301" xml:space="preserve">
<g>
	<g>
		<path fill="#272727" d="M0.899,1.801h19.2c0.496,0,0.9-0.406,0.9-0.9C21,0.405,20.596,0,20.1,0h-19.2C0.404,0,0,0.405,0,0.9
			C0,1.395,0.404,1.801,0.899,1.801z"/>
		<path fill="#272727" d="M0.899,8.55h19.2c0.496,0,0.9-0.404,0.9-0.898c0-0.496-0.404-0.9-0.9-0.9h-19.2
			C0.404,6.751,0,7.155,0,7.651C0,8.146,0.404,8.55,0.899,8.55z"/>
		<path fill="#272727" d="M0.899,15.301h19.2c0.496,0,0.9-0.405,0.9-0.9c0-0.494-0.404-0.9-0.9-0.9h-19.2
			C0.404,13.5,0,13.906,0,14.4C0,14.896,0.404,15.301,0.899,15.301z"/>
	</g>
</g>
</svg>
