<?xml version="1.0" encoding="utf-8"?>
<!-- Generator: Adobe Illustrator 16.0.0, SVG Export Plug-In . SVG Version: 6.00 Build 0)  -->
<!DOCTYPE svg PUBLIC "-//W3C//DTD SVG 1.1//EN" "http://www.w3.org/Graphics/SVG/1.1/DTD/svg11.dtd">
<svg version="1.1" id="Слой_1" xmlns="http://www.w3.org/2000/svg" xmlns:xlink="http://www.w3.org/1999/xlink" x="0px" y="0px"
	 width="45px" height="45.001px" viewBox="0 0 45 45.001" enable-background="new 0 0 45 45.001" xml:space="preserve">
<g>
	<path fill="#4D2B16" d="M31.947,0H13.054C11.232,0,9.75,1.482,9.75,3.304v38.393c0,1.822,1.482,3.305,3.304,3.305h18.893
		c1.821,0,3.304-1.482,3.304-3.303V3.304C35.25,1.482,33.768,0,31.947,0z M11.25,6h22.5v28.501h-22.5V6z M13.054,1.5h18.893
		c0.995,0,1.804,0.809,1.804,1.804V4.5h-22.5V3.304C11.25,2.309,12.06,1.5,13.054,1.5z M31.947,43.501H13.054
		c-0.994,0-1.804-0.809-1.804-1.803v-5.697h22.5v5.697C33.75,42.692,32.941,43.501,31.947,43.501z"/>
	<path fill="#4D2B16" d="M22.5,36.751c-1.654,0-3,1.346-3,3s1.346,3,3,3c1.655,0,3-1.346,3-3S24.155,36.751,22.5,36.751z
		 M22.5,41.251c-0.827,0-1.5-0.673-1.5-1.5c0-0.826,0.673-1.5,1.5-1.5s1.5,0.674,1.5,1.5C24,40.578,23.327,41.251,22.5,41.251z"/>
	<path fill="#4D2B16" d="M19.5,3.75h3c0.415,0,0.75-0.335,0.75-0.75s-0.335-0.75-0.75-0.75h-3c-0.415,0-0.751,0.335-0.751,0.75
		S19.085,3.75,19.5,3.75z"/>
	<path fill="#4D2B16" d="M24.75,3.75h0.75c0.415,0,0.75-0.335,0.75-0.75s-0.335-0.75-0.75-0.75h-0.75C24.336,2.25,24,2.585,24,3
		S24.336,3.75,24.75,3.75z"/>
	<path fill="#4D2B16" d="M42.46,3.427c-0.294-0.293-0.768-0.293-1.061,0c-0.293,0.293-0.293,0.767,0,1.061
		c2.802,2.802,2.802,7.361,0,10.164c-0.293,0.293-0.293,0.768,0,1.061c0.146,0.146,0.338,0.22,0.53,0.22s0.384-0.074,0.53-0.22
		C45.847,12.326,45.847,6.814,42.46,3.427z"/>
	<path fill="#4D2B16" d="M39.301,5.134c-0.293-0.293-0.767-0.293-1.06,0c-0.294,0.293-0.294,0.767,0,1.061
		c0.927,0.928,1.438,2.164,1.438,3.479s-0.512,2.551-1.438,3.479c-0.294,0.293-0.294,0.767,0,1.061
		c0.146,0.146,0.338,0.22,0.53,0.22c0.191,0,0.384-0.074,0.529-0.22c1.212-1.211,1.879-2.823,1.879-4.539
		C41.18,7.958,40.514,6.344,39.301,5.134z"/>
	<path fill="#4D2B16" d="M3.601,4.487c0.294-0.293,0.294-0.768,0-1.061c-0.293-0.293-0.767-0.293-1.061,0
		c-3.387,3.387-3.387,8.898,0,12.286c0.146,0.146,0.339,0.22,0.53,0.22c0.192,0,0.385-0.074,0.53-0.22
		c0.294-0.293,0.294-0.768,0-1.061C0.798,11.85,0.798,7.29,3.601,4.487z"/>
	<path fill="#4D2B16" d="M6.759,4.927c-0.293-0.293-0.767-0.293-1.061,0C4.488,6.137,3.82,7.75,3.82,9.466
		c0,1.716,0.668,3.328,1.878,4.54c0.146,0.146,0.339,0.22,0.531,0.22c0.191,0,0.384-0.073,0.529-0.22
		c0.294-0.293,0.294-0.767,0-1.061C5.832,12.018,5.32,10.782,5.32,9.466c0-1.316,0.51-2.551,1.438-3.479
		C7.052,5.695,7.052,5.22,6.759,4.927z"/>
</g>
</svg>
