
<svg version="1.1" id="Шар_1" 	 xmlns="http://www.w3.org/2000/svg" xmlns:xlink="http://www.w3.org/1999/xlink" x="0px" y="0px" width="9.531px"
	 height="15.872px" viewBox="0 0 9.531 15.872" enable-background="new 0 0 9.531 15.872" xml:space="preserve">
<path fill-rule="evenodd" clip-rule="evenodd" d="M3.984,11.18c-1.23-0.129-2.339-0.432-3.29-1.175
	C0.576,9.913,0.455,9.824,0.348,9.722c-0.416-0.4-0.458-0.857-0.129-1.328C0.5,7.989,0.973,7.881,1.464,8.113
	C1.559,8.158,1.65,8.214,1.736,8.274c1.771,1.216,4.202,1.25,5.979,0.054c0.178-0.134,0.364-0.245,0.582-0.301
	c0.426-0.108,0.82,0.047,1.047,0.418c0.262,0.424,0.258,0.838-0.063,1.167c-0.492,0.504-1.083,0.869-1.738,1.124
	c-0.621,0.24-1.302,0.361-1.975,0.441c0.102,0.111,0.148,0.165,0.213,0.229c0.914,0.919,1.832,1.833,2.743,2.754
	c0.31,0.315,0.375,0.703,0.204,1.069c-0.188,0.397-0.605,0.661-1.016,0.633c-0.26-0.019-0.463-0.147-0.643-0.329
	c-0.689-0.694-1.393-1.375-2.068-2.082c-0.197-0.206-0.292-0.167-0.464,0.011c-0.694,0.715-1.4,1.418-2.109,2.117
	c-0.318,0.314-0.697,0.371-1.067,0.192c-0.393-0.19-0.643-0.591-0.623-0.994c0.013-0.272,0.147-0.481,0.334-0.668
	c0.905-0.902,1.806-1.809,2.709-2.712C3.842,11.337,3.897,11.272,3.984,11.18"/>
<path fill-rule="evenodd" clip-rule="evenodd" d="M4.734,8.034C2.539,8.026,0.739,6.207,0.752,4.008
	C0.764,1.785,2.565-0.006,4.782,0c2.222,0.006,4.005,1.822,3.993,4.068C8.764,6.263,6.951,8.042,4.734,8.034 M6.729,4.014
	C6.725,2.922,5.856,2.053,4.766,2.052C3.667,2.051,2.791,2.935,2.799,4.037c0.008,1.087,0.885,1.95,1.977,1.946
	C5.865,5.979,6.732,5.104,6.729,4.014"/>
</svg>
