<?xml version="1.0" encoding="utf-8"?>
<!-- Generator: Adobe Illustrator 16.0.0, SVG Export Plug-In . SVG Version: 6.00 Build 0)  -->
<!DOCTYPE svg PUBLIC "-//W3C//DTD SVG 1.1//EN" "http://www.w3.org/Graphics/SVG/1.1/DTD/svg11.dtd">
<svg version="1.1" id="Слой_1" xmlns="http://www.w3.org/2000/svg" xmlns:xlink="http://www.w3.org/1999/xlink" x="0px" y="0px"
	 width="15px" height="24.937px" viewBox="0 0 15 24.937" enable-background="new 0 0 15 24.937" xml:space="preserve">
<path fill="#272727" d="M7.5,12.623c3.485,0,6.312-2.826,6.312-6.311C13.812,2.826,10.985,0,7.5,0S1.188,2.826,1.188,6.312
	C1.188,9.797,4.015,12.623,7.5,12.623z M7.5,3.206c1.715,0,3.105,1.391,3.105,3.105S9.215,9.417,7.5,9.417s-3.105-1.39-3.105-3.105
	S5.785,3.206,7.5,3.206z M14.775,13.393c-0.356-0.716-1.344-1.311-2.655-0.277c-1.772,1.396-4.62,1.396-4.62,1.396
	s-2.848,0-4.62-1.396c-1.312-1.034-2.299-0.438-2.655,0.277c-0.621,1.248,0.081,1.852,1.665,2.868
	c1.353,0.868,3.212,1.192,4.412,1.313L5.3,18.576c-1.412,1.412-2.774,2.774-3.72,3.72c-0.564,0.565-0.564,1.481,0,2.047l0.171,0.171
	c0.565,0.564,1.481,0.564,2.047,0l3.719-3.72c1.411,1.411,2.773,2.774,3.719,3.72c0.565,0.564,1.482,0.564,2.047,0l0.171-0.171
	c0.565-0.565,0.564-1.481,0-2.047l-3.72-3.72l-1.005-1.004c1.201-0.125,3.04-0.45,4.382-1.312
	C14.694,15.244,15.396,14.641,14.775,13.393z"/>
</svg>
