
<svg version="1.1" id="Шар_1" 	 xmlns="http://www.w3.org/2000/svg" xmlns:xlink="http://www.w3.org/1999/xlink" x="0px" y="0px" width="11.453px" height="16px"
	 viewBox="0 0 11.453 16" enable-background="new 0 0 11.453 16" xml:space="preserve">
<path fill="#010202" d="M11.374,14.482v-0.004l-2.09-3.531c-0.16-0.273-0.508-0.357-0.776-0.199l-1.244,0.738l0.103,0.172
	c-0.552,0.246-1.041-0.313-1.908-1.487L3.676,7.162c-0.352-0.769-0.63-1.55-0.095-1.928l0.057,0.098l1.244-0.736V4.594
	c0.285-0.169,0.353-0.521,0.199-0.78V3.812L2.992,0.28c-0.16-0.274-0.508-0.359-0.776-0.2L0.972,0.818l0.076,0.126
	c-0.689,0.567-2.412,3.244,1.007,9.181c3.548,6.162,6.928,6.125,7.786,5.726L9.928,16l1.244-0.735v-0.001
	C11.458,15.094,11.525,14.742,11.374,14.482"/>
</svg>
