<?xml version="1.0" encoding="utf-8"?>
<!-- Generator: Adobe Illustrator 16.0.0, SVG Export Plug-In . SVG Version: 6.00 Build 0)  -->
<!DOCTYPE svg PUBLIC "-//W3C//DTD SVG 1.1//EN" "http://www.w3.org/Graphics/SVG/1.1/DTD/svg11.dtd">
<svg version="1.1" id="Слой_1" xmlns="http://www.w3.org/2000/svg" xmlns:xlink="http://www.w3.org/1999/xlink" x="0px" y="0px"
	 width="51px" height="45.653px" viewBox="0 0 51 45.653" enable-background="new 0 0 51 45.653" xml:space="preserve">
<g>
	<path fill="#4D2B16" d="M5.709,19.361c-1.791,0-3.135-0.431-4.084-1.305c-1.729-1.59-1.661-4.168-1.604-6.442
		c0.011-0.375,0.021-0.74,0.021-1.087C0.039,8.1,2.698,5.449,7.149,3.435C12.047,1.22,18.563,0,25.498,0
		c6.939,0,13.456,1.22,18.353,3.435c4.452,2.013,7.109,4.665,7.108,7.09c0,0.351,0.01,0.718,0.02,1.092
		c0.058,2.274,0.124,4.851-1.602,6.439c-1.192,1.095-3.009,1.498-5.559,1.219c-7.523-0.818-7.5-3.814-7.474-7.285l0.003-0.617
		c0-0.572-0.782-2.44-10.848-2.44c-3.286,0.001-5.888,0.199-7.732,0.59c-1.163,0.247-3.113,0.814-3.113,1.848l0.001,0.625
		c0.026,3.468,0.047,6.464-7.473,7.279C6.662,19.333,6.171,19.361,5.709,19.361z M25.5,1.396c-6.742,0-13.055,1.177-17.773,3.311
		c-3.821,1.727-6.289,4.012-6.289,5.821c0,0.36-0.01,0.737-0.021,1.124c-0.05,1.978-0.106,4.218,1.153,5.379
		c0.866,0.795,2.372,1.084,4.462,0.857c6.267-0.679,6.251-2.638,6.229-5.88l-0.002-0.635c-0.002-1.538,1.419-2.62,4.22-3.213
		c1.94-0.41,4.639-0.618,8.022-0.62l0,0c8.354,0,12.244,1.218,12.244,3.836l-0.003,0.628c-0.026,3.245-0.041,5.205,6.227,5.886
		c2.104,0.229,3.597-0.062,4.462-0.858c1.261-1.159,1.203-3.4,1.153-5.377c-0.01-0.387-0.02-0.766-0.02-1.128
		c0.002-1.807-2.468-4.092-6.288-5.819C38.557,2.572,32.243,1.396,25.5,1.396z"/>
	<path fill="#4D2B16" d="M15.688,27.974H9.175c-0.386,0-0.698-0.313-0.698-0.698v-4.188c0-0.385,0.313-0.698,0.698-0.698h6.514
		c0.386,0,0.698,0.313,0.698,0.698v4.188C16.387,27.662,16.076,27.974,15.688,27.974z M9.872,26.577h5.119v-2.791H9.872V26.577z"/>
	<path fill="#4D2B16" d="M28.758,27.974h-6.515c-0.385,0-0.697-0.313-0.697-0.698v-4.188c0-0.385,0.313-0.698,0.697-0.698h6.515
		c0.385,0,0.697,0.313,0.697,0.698v4.188C29.455,27.662,29.143,27.974,28.758,27.974z M22.941,26.577h5.118v-2.791h-5.118V26.577z"
		/>
	<path fill="#4D2B16" d="M41.824,27.974h-6.513c-0.386,0-0.698-0.313-0.698-0.698v-4.188c0-0.385,0.313-0.698,0.698-0.698h6.513
		c0.385,0,0.697,0.313,0.697,0.698v4.188C42.521,27.662,42.209,27.974,41.824,27.974z M36.009,26.577h5.117v-2.791h-5.117V26.577z"
		/>
	<path fill="#4D2B16" d="M15.688,36.813H9.175c-0.386,0-0.698-0.313-0.698-0.698v-4.188c0-0.385,0.313-0.697,0.698-0.697h6.514
		c0.386,0,0.698,0.313,0.698,0.697v4.188C16.387,36.502,16.076,36.813,15.688,36.813z M9.872,35.417h5.119v-2.791H9.872V35.417z"/>
	<path fill="#4D2B16" d="M28.758,36.813h-6.515c-0.385,0-0.697-0.313-0.697-0.698v-4.188c0-0.385,0.313-0.697,0.697-0.697h6.515
		c0.385,0,0.697,0.313,0.697,0.697v4.188C29.455,36.502,29.143,36.813,28.758,36.813z M22.941,35.417h5.118v-2.791h-5.118V35.417z"
		/>
	<path fill="#4D2B16" d="M41.824,36.813h-6.513c-0.386,0-0.698-0.313-0.698-0.698v-4.188c0-0.385,0.313-0.697,0.698-0.697h6.513
		c0.385,0,0.697,0.313,0.697,0.697v4.188C42.521,36.502,42.209,36.813,41.824,36.813z M36.009,35.417h5.117v-2.791h-5.117V35.417z"
		/>
	<path fill="#4D2B16" d="M15.688,45.653H9.175c-0.386,0-0.698-0.313-0.698-0.697v-4.188c0-0.385,0.313-0.697,0.698-0.697h6.514
		c0.386,0,0.698,0.313,0.698,0.697v4.188C16.387,45.343,16.076,45.653,15.688,45.653z M9.872,44.259h5.119v-2.792H9.872V44.259z"/>
	<path fill="#4D2B16" d="M28.758,45.653h-6.515c-0.385,0-0.697-0.313-0.697-0.697v-4.188c0-0.385,0.313-0.697,0.697-0.697h6.515
		c0.385,0,0.697,0.313,0.697,0.697v4.188C29.455,45.343,29.143,45.653,28.758,45.653z M22.941,44.259h5.118v-2.792h-5.118V44.259z"
		/>
	<path fill="#4D2B16" d="M41.824,45.653h-6.513c-0.386,0-0.698-0.313-0.698-0.697v-4.188c0-0.385,0.313-0.697,0.698-0.697h6.513
		c0.385,0,0.697,0.313,0.697,0.697v4.188C42.521,45.343,42.209,45.653,41.824,45.653z M36.009,44.259h5.117v-2.792h-5.117V44.259z"
		/>
</g>
</svg>
