<?xml version="1.0" encoding="utf-8"?>
<!-- Generator: Adobe Illustrator 16.0.0, SVG Export Plug-In . SVG Version: 6.00 Build 0)  -->
<!DOCTYPE svg PUBLIC "-//W3C//DTD SVG 1.1//EN" "http://www.w3.org/Graphics/SVG/1.1/DTD/svg11.dtd">
<svg version="1.1" id="Слой_1" xmlns="http://www.w3.org/2000/svg" xmlns:xlink="http://www.w3.org/1999/xlink" x="0px" y="0px"
	 width="86px" height="131.502px" viewBox="0 0 86 131.502" enable-background="new 0 0 86 131.502" xml:space="preserve">
<g>
	<path opacity="0.1" fill="#4D2B16" d="M69.271,105.229c0,14.508-11.757,26.272-26.271,26.272s-26.271-11.765-26.271-26.272
		c0-14.507,11.757-26.272,26.271-26.272S69.271,90.723,69.271,105.229z"/>
	<g>
		<path fill="#4D2B16" d="M38.297,52.135L19.248,27.632l19.049-0.007v-9.399H11.941l6.951-8.831h19.404V0H14.336L0,18.184
			l38.297,49.261V52.135z M58.481,18.226v9.399h8.279L52.39,46.089V9.395H79.07L71.664,0H43v73.494l42.943-55.224L86,18.226h-0.03
			H58.481z"/>
	</g>
	<circle fill="#4D2B16" cx="43" cy="105.229" r="5.28"/>
	<path opacity="0.2" fill="#4D2B16" d="M58.904,105.229c0,8.783-7.118,15.905-15.904,15.905c-8.787,0-15.904-7.122-15.904-15.905
		c0-8.782,7.117-15.905,15.904-15.905C51.786,89.324,58.904,96.447,58.904,105.229z"/>
</g>
</svg>
