
<svg version="1.1" id="Шар_1"  xmlns="http://www.w3.org/2000/svg" xmlns:xlink="http://www.w3.org/1999/xlink" x="0px" y="0px" width="18.001px"
	 height="17.999px" viewBox="0 0 18.001 17.999" enable-background="new 0 0 18.001 17.999" xml:space="preserve">
<path fill="#050607" d="M0.16,13.81c-0.213,0.213-0.213,0.563,0,0.777l3.252,3.253c0.104,0.103,0.242,0.159,0.39,0.159
	c0.146,0,0.285-0.057,0.388-0.159L17.841,4.19c0.213-0.215,0.213-0.563,0-0.778l-3.252-3.251C14.485,0.057,14.347,0,14.198,0
	c-0.145,0-0.285,0.057-0.387,0.161L0.16,13.81z M17.375,3.725c0.044,0.041,0.044,0.107,0,0.147l-1.438,1.44l-1.516-1.519
	c-0.089-0.088-0.232-0.088-0.32,0c-0.088,0.088-0.088,0.231,0,0.319l1.518,1.519l-1.329,1.328l-2.245-2.246
	c-0.088-0.088-0.23-0.088-0.318,0c-0.089,0.088-0.089,0.231,0,0.319l2.246,2.247l-1.498,1.498L11.026,7.33
	c-0.088-0.086-0.229-0.086-0.32,0.002c-0.086,0.088-0.086,0.232,0,0.32l1.447,1.444l-1.595,1.597L8.313,8.447
	c-0.088-0.088-0.231-0.088-0.319,0s-0.09,0.232-0.002,0.32l2.248,2.246l-1.506,1.504L7.215,11c-0.089-0.091-0.232-0.091-0.32,0
	c-0.088,0.088-0.088,0.229,0,0.317l1.519,1.521l-1.33,1.328L4.84,11.92c-0.092-0.089-0.232-0.089-0.322,0
	c-0.086,0.089-0.086,0.231,0,0.323l2.246,2.244l-1.498,1.496L3.82,14.538c-0.088-0.088-0.231-0.088-0.32,0
	c-0.088,0.09-0.088,0.232,0,0.322l1.445,1.443l-1.058,1.061c-0.022,0.021-0.056,0.037-0.086,0.037c-0.032,0-0.063-0.016-0.086-0.037
	l-3.08-3.08c-0.023-0.023-0.037-0.053-0.037-0.086c0-0.031,0.014-0.063,0.037-0.084L14.114,0.635c0.045-0.047,0.123-0.047,0.17,0
	L17.375,3.725z"/>
</svg>
