
<svg version="1.1" id="Шар_1"	 xmlns="http://www.w3.org/2000/svg" xmlns:xlink="http://www.w3.org/1999/xlink" x="0px" y="0px" width="16px" height="15.994px"
	 viewBox="0 0 16 15.994" enable-background="new 0 0 16 15.994" xml:space="preserve">
<path d="M16,14.833l-4.336-4.354c0.834-1.099,1.33-2.468,1.33-3.952C12.994,2.928,10.079,0,6.497,0C2.914,0,0,2.928,0,6.527
	c0,3.6,2.914,6.528,6.497,6.528c1.519,0,2.916-0.528,4.024-1.409l4.326,4.348L16,14.833z M6.497,11.585
	c-2.776,0-5.035-2.27-5.035-5.059c0-2.788,2.259-5.058,5.035-5.058c2.776,0,5.035,2.27,5.035,5.058
	C11.532,9.316,9.273,11.585,6.497,11.585"/>
</svg>
