
<svg version="1.1" id="Слой_1" xmlns="http://www.w3.org/2000/svg" xmlns:xlink="http://www.w3.org/1999/xlink" x="0px" y="0px"
	 width="46px" height="46px" viewBox="0 0 46 46" enable-background="new 0 0 46 46" xml:space="preserve">
<g>
	<path fill="#4D2B16" d="M46,3.522c0-0.371-0.302-0.672-0.672-0.672H27.473V0.672C27.473,0.301,27.171,0,26.801,0h-7.602
		c-0.37,0-0.672,0.301-0.672,0.672v2.179H0.672C0.302,2.851,0,3.152,0,3.522v3.8c0,0.371,0.302,0.672,0.672,0.672H1.9v28.782
		c0,0.371,0.302,0.672,0.672,0.672h17.38v7.879c0,0.371,0.302,0.672,0.672,0.672h4.752c0.37,0,0.672-0.301,0.672-0.672v-7.879h17.38
		c0.37,0,0.672-0.301,0.672-0.672V7.995h1.229c0.37,0,0.672-0.301,0.672-0.672V3.522z M19.872,1.344h6.256v1.506h-6.256V1.344z
		 M24.703,44.656h-3.406v-7.207h3.406V44.656z M42.756,36.105H3.244V7.995h39.512V36.105z M44.656,6.651H1.344V4.194h43.313V6.651z"
		/>
	<polygon fill="#4D2B16" points="20.152,29.175 21.833,27.501 20.885,26.549 19.199,28.227 17.515,26.549 16.566,27.501 
		18.247,29.175 16.566,30.85 17.515,31.802 19.199,30.125 20.885,31.802 21.833,30.85 	"/>
	<polygon fill="#4D2B16" points="20.884,14.19 19.934,13.239 18.249,14.923 16.564,13.239 15.614,14.19 17.299,15.874 
		15.614,17.559 16.564,18.509 18.249,16.825 19.934,18.509 20.884,17.559 19.2,15.874 	"/>
	<polygon fill="#4D2B16" points="29.427,14.189 28.475,13.241 26.801,14.921 25.127,13.241 24.174,14.189 25.852,15.874 
		24.174,17.559 25.127,18.507 26.801,16.827 28.475,18.507 29.427,17.559 27.749,15.874 	"/>
	<polygon fill="#4D2B16" points="12.333,14.19 11.383,13.239 9.698,14.923 8.014,13.239 7.063,14.19 8.748,15.874 7.063,17.559 
		8.014,18.509 9.698,16.825 11.383,18.509 12.333,17.559 10.648,15.874 	"/>
	<polygon fill="#4D2B16" points="30.376,27.501 29.426,26.55 27.751,28.225 26.076,26.55 25.125,27.501 26.8,29.175 25.125,30.851 
		26.076,31.8 27.751,30.126 29.426,31.8 30.376,30.851 28.701,29.175 	"/>
	<polygon fill="#4D2B16" points="38.927,27.501 37.977,26.55 36.302,28.225 34.627,26.55 33.677,27.501 35.352,29.175 
		33.677,30.851 34.627,31.8 36.302,30.126 37.977,31.8 38.927,30.851 37.252,29.175 	"/>
	<path fill="#4D2B16" d="M36.974,12.746l2.457,2.457l0.95-0.951l-3.604-3.604c-0.254-0.253-0.697-0.253-0.951,0l-3.604,3.604
		l0.95,0.951l2.457-2.457v9.107H10.174c-0.746,0-1.147,0.591-1.147,1.147v3.662l-0.209,0.053c-1.556,0.402-2.642,1.805-2.642,3.412
		c0,1.941,1.58,3.521,3.522,3.521s3.522-1.58,3.522-3.521c0-1.607-1.087-3.01-2.642-3.412l-0.209-0.053v-3.464h25.456
		c0.746,0,1.147-0.591,1.147-1.147V12.746z M11.877,30.126c0,1.201-0.978,2.178-2.179,2.178S7.52,31.328,7.52,30.126
		s0.978-2.179,2.179-2.179S11.877,28.925,11.877,30.126z"/>
	<rect x="9.026" y="29.455" fill="#4D2B16" width="1.344" height="1.344"/>
</g>
</svg>
