
<svg version="1.1" id="Слой_1" xmlns="http://www.w3.org/2000/svg" xmlns:xlink="http://www.w3.org/1999/xlink" x="0px" y="0px"
	 width="23px" height="20.329px" viewBox="0 0 23 20.329" enable-background="new 0 0 23 20.329" xml:space="preserve">
<g>
	<path fill="#4D2B16" d="M12.495,5.074h4.165v4.148L23,4.611L16.66,0v4.148h-4.165c-3.317,0-6.017,2.699-6.017,6.016
		c0,2.807-2.283,5.09-5.091,5.09H0.463C0.207,15.255,0,15.462,0,15.717c0,0.257,0.207,0.464,0.463,0.464h0.925
		c3.317,0,6.017-2.698,6.017-6.016C7.404,7.358,9.688,5.074,12.495,5.074z M17.585,1.818l3.841,2.793l-3.841,2.794V1.818z"/>
	<path fill="#4D2B16" d="M0.463,5.074h0.925c1.256,0,2.461,0.46,3.396,1.296c0.089,0.079,0.199,0.118,0.309,0.118
		c0.127,0,0.254-0.052,0.345-0.153C5.607,6.143,5.591,5.85,5.401,5.68C4.296,4.693,2.872,4.148,1.388,4.148H0.463
		C0.207,4.148,0,4.355,0,4.611S0.207,5.074,0.463,5.074z"/>
	<path fill="#4D2B16" d="M16.66,15.255h-4.165c-1.242,0-2.439-0.451-3.368-1.271c-0.19-0.169-0.483-0.151-0.653,0.041
		c-0.169,0.192-0.15,0.483,0.041,0.653c1.099,0.97,2.513,1.503,3.981,1.503h4.164v4.148L23,15.717l-6.34-4.61V15.255z
		 M17.585,12.925l3.841,2.792l-3.841,2.795V12.925z"/>
</g>
</svg>
