<?xml version="1.0" encoding="utf-8"?>
<!-- Generator: Adobe Illustrator 16.0.0, SVG Export Plug-In . SVG Version: 6.00 Build 0)  -->
<!DOCTYPE svg PUBLIC "-//W3C//DTD SVG 1.1//EN" "http://www.w3.org/Graphics/SVG/1.1/DTD/svg11.dtd">
<svg version="1.1" id="Слой_1" xmlns="http://www.w3.org/2000/svg" xmlns:xlink="http://www.w3.org/1999/xlink" x="0px" y="0px"
	 width="13px" height="22.452px" viewBox="0 0 13 22.452" enable-background="new 0 0 13 22.452" xml:space="preserve">
<path fill="#272727" d="M11.801,17.855c0,0-0.666,0.766-1.932,0.766c-1.267,0-1.833-0.766-1.833-1.898c0-0.455,0-3.244,0-6.418
	h4.094v-3.89H8.036c0-3.443,0-6.415,0-6.415H4.954C4.473,2.879,2.575,5.276,0,6.453v3.852h3.007c0,3.744,0,7.133,0,7.391
	c0,1.025,0.966,4.757,5.896,4.757c2.898,0,4.098-1.865,4.098-1.865L11.801,17.855z"/>
</svg>
