<?xml version="1.0" encoding="utf-8"?>
<!-- Generator: Adobe Illustrator 16.0.0, SVG Export Plug-In . SVG Version: 6.00 Build 0)  -->
<!DOCTYPE svg PUBLIC "-//W3C//DTD SVG 1.1//EN" "http://www.w3.org/Graphics/SVG/1.1/DTD/svg11.dtd">
<svg version="1.1" id="Слой_1" xmlns="http://www.w3.org/2000/svg" xmlns:xlink="http://www.w3.org/1999/xlink" x="0px" y="0px"
	 width="26px" height="21.119px" viewBox="0 0 26 21.119" enable-background="new 0 0 26 21.119" xml:space="preserve">
<g>
	<g>
		<path fill="#272727" d="M26,2.499c-0.957,0.424-1.984,0.711-3.063,0.84c1.102-0.66,1.944-1.706,2.344-2.949
			C24.247,1,23.107,1.444,21.892,1.685C20.919,0.647,19.535,0,17.999,0c-2.944,0-5.333,2.388-5.333,5.332
			c0,0.417,0.048,0.825,0.138,1.215C8.372,6.325,4.442,4.201,1.813,0.974C1.352,1.761,1.09,2.677,1.09,3.655
			c0,1.851,0.942,3.483,2.372,4.439c-0.874-0.03-1.696-0.27-2.415-0.67v0.066c0,2.583,1.838,4.739,4.276,5.229
			c-0.445,0.121-0.917,0.188-1.405,0.188c-0.344,0-0.676-0.033-1.005-0.099c0.681,2.12,2.648,3.663,4.982,3.704
			c-1.824,1.43-4.125,2.279-6.623,2.279c-0.432,0-0.855-0.025-1.272-0.072c2.36,1.516,5.163,2.398,8.174,2.398
			c9.813,0,15.177-8.127,15.177-15.174l-0.019-0.691C24.38,4.506,25.287,3.567,26,2.499z"/>
	</g>
</g>
</svg>
