
<svg version="1.1" id="Шар_1" 	 xmlns="http://www.w3.org/2000/svg" xmlns:xlink="http://www.w3.org/1999/xlink" x="0px" y="0px" width="16px" height="13.02px"
	 viewBox="0 0 16 13.02" enable-background="new 0 0 16 13.02" xml:space="preserve">
<path fill="#010202" d="M16,1.543c-0.59,0.261-1.221,0.437-1.885,0.519c0.678-0.407,1.199-1.052,1.443-1.817
	c-0.634,0.377-1.336,0.65-2.085,0.797C12.874,0.399,12.019,0,11.077,0C9.263,0,7.795,1.471,7.795,3.285
	c0,0.258,0.027,0.509,0.085,0.75C5.15,3.899,2.729,2.591,1.112,0.6C0.831,1.085,0.668,1.65,0.668,2.251
	c0,1.14,0.583,2.146,1.465,2.736C1.59,4.974,1.082,4.825,0.641,4.577v0.041c0,1.594,1.132,2.919,2.634,3.221
	C3,7.913,2.709,7.954,2.411,7.954c-0.211,0-0.417-0.021-0.618-0.062c0.418,1.307,1.632,2.255,3.069,2.282
	c-1.122,0.882-2.54,1.407-4.079,1.407c-0.264,0-0.525-0.018-0.783-0.047c1.448,0.941,3.174,1.484,5.024,1.484
	c6.047,0,9.35-5.008,9.35-9.352c0-0.143-0.004-0.284-0.012-0.423C15.003,2.779,15.559,2.204,16,1.543"/>
</svg>
