
<svg version="1.1" id="Шар_1" 	 xmlns="http://www.w3.org/2000/svg" xmlns:xlink="http://www.w3.org/1999/xlink" x="0px" y="0px" width="48px" height="33.863px"
	 viewBox="0 0 48 33.863" enable-background="new 0 0 48 33.863" xml:space="preserve">
<path d="M3.627,33.863h40.746c2.001,0,3.627-1.627,3.627-3.627V3.627C48,1.625,46.374,0,44.373,0H3.627C1.625,0,0,1.625,0,3.627
	v26.609C0,32.236,1.625,33.863,3.627,33.863 M26.794,31.316h-5.59v-3.455h5.59V31.316z M40.111,2.63h5.591v3.45h-5.591V2.63z
	 M39.942,27.861h5.59v3.455h-5.59V27.861z M30.739,2.63h5.591v3.45h-5.591V2.63z M30.577,27.861h5.588v3.455h-5.588V27.861z
	 M21.369,2.63h5.588v3.45h-5.588V2.63z M22.803,10.969l8.396,4.2c1.949,0.974,1.949,2.551,0,3.524l-8.396,4.198
	c-1.949,0.974-3.526-0.004-3.526-2.183v-7.556C19.276,10.974,20.854,9.995,22.803,10.969 M12.002,2.63h5.59v3.45h-5.59V2.63z
	 M11.834,27.861h5.588v3.455h-5.588V27.861z M2.63,2.63h5.59v3.45H2.63V2.63z M2.467,27.861h5.588v3.455H2.467V27.861z"/>
</svg>
