
<svg version="1.1" id="Шар_1" 	 xmlns="http://www.w3.org/2000/svg" xmlns:xlink="http://www.w3.org/1999/xlink" x="0px" y="0px" width="16px" height="9.125px"
	 viewBox="0 0 16 9.125" enable-background="new 0 0 16 9.125" xml:space="preserve">
<path fill="#010202" d="M8,9h0.785c0,0,0.288,0.013,0.436-0.146c0.137-0.146,0.133-0.397,0.133-0.397s-0.02-1.272,0.576-1.46
	c0.586-0.188,1.34,1.245,2.141,1.794c0.604,0.415,1.063,0.327,1.063,0.327l2.137-0.029c0,0,1.117-0.068,0.588-0.947
	c-0.043-0.071-0.31-0.649-1.588-1.838c-1.34-1.243-1.162-1.042,0.453-3.192c0.982-1.311,1.375-2.109,1.252-2.452
	c-0.117-0.326-0.84-0.24-0.84-0.24l-2.404,0.015c0,0-0.18-0.024-0.312,0.056c-0.129,0.077-0.212,0.258-0.212,0.258
	s-0.382,1.014-0.889,1.875c-1.071,1.82-1.5,1.916-1.676,1.803C9.237,4.161,9.338,3.366,9.338,2.802c0-1.763,0.268-2.498-0.521-2.688
	C8.556,0.051,8.363,0.009,7.694,0.002C6.835-0.007,6.109,0.005,5.699,0.206C5.424,0.34,5.213,0.639,5.341,0.656
	C5.5,0.677,5.86,0.753,6.052,1.013C6.298,1.348,6.29,2.102,6.29,2.102s0.142,2.075-0.331,2.332C5.634,4.612,5.189,4.25,4.234,2.6
	C3.746,1.755,3.375,0.82,3.375,0.82S3.305,0.646,3.177,0.552C3.023,0.439,2.809,0.403,2.809,0.403L0.521,0.418
	c0,0-0.343,0.01-0.469,0.159C-0.06,0.709,0.043,0.984,0.043,0.984s1.79,4.207,3.817,6.316c1.858,1.936,4.084,1.764,4.084,1.764"/>
</svg>
