<?xml version="1.0" encoding="utf-8"?>
<!-- Generator: Adobe Illustrator 16.0.0, SVG Export Plug-In . SVG Version: 6.00 Build 0)  -->
<!DOCTYPE svg PUBLIC "-//W3C//DTD SVG 1.1//EN" "http://www.w3.org/Graphics/SVG/1.1/DTD/svg11.dtd">
<svg version="1.1" id="Слой_1" xmlns="http://www.w3.org/2000/svg" xmlns:xlink="http://www.w3.org/1999/xlink" x="0px" y="0px"
	 width="27px" height="15.28px" viewBox="0 0 27 15.28" enable-background="new 0 0 27 15.28" xml:space="preserve">
<path fill="#272727" d="M23.237,9.715c0.896,0.875,1.842,1.697,2.645,2.659c0.354,0.429,0.69,0.87,0.947,1.366
	c0.365,0.706,0.035,1.482-0.598,1.524l-3.934-0.002c-1.015,0.084-1.824-0.324-2.505-1.018c-0.544-0.555-1.049-1.145-1.572-1.719
	c-0.214-0.234-0.439-0.455-0.707-0.629c-0.537-0.349-1.003-0.242-1.311,0.318c-0.313,0.569-0.384,1.2-0.414,1.835
	c-0.042,0.927-0.322,1.17-1.252,1.212c-1.988,0.094-3.876-0.207-5.629-1.21c-1.545-0.884-2.744-2.133-3.787-3.546
	C3.089,7.756,1.534,4.732,0.136,1.623c-0.314-0.7-0.085-1.076,0.688-1.09C2.108,0.508,3.39,0.51,4.675,0.532
	C5.197,0.54,5.542,0.838,5.744,1.331c0.694,1.707,1.544,3.332,2.61,4.836c0.283,0.401,0.573,0.802,0.985,1.084
	c0.456,0.313,0.804,0.209,1.019-0.299c0.136-0.322,0.195-0.669,0.226-1.014c0.103-1.188,0.115-2.373-0.063-3.556
	c-0.109-0.738-0.525-1.216-1.263-1.356C8.882,0.955,8.939,0.815,9.121,0.601C9.437,0.23,9.734,0,10.327,0h4.445
	c0.7,0.138,0.855,0.453,0.951,1.157l0.004,4.938c-0.007,0.272,0.137,1.082,0.628,1.262c0.393,0.128,0.651-0.186,0.888-0.436
	c1.064-1.129,1.823-2.464,2.502-3.847c0.302-0.607,0.561-1.239,0.812-1.87c0.186-0.468,0.478-0.698,1.005-0.688l4.278,0.004
	c0.127,0,0.255,0.002,0.378,0.023c0.721,0.123,0.919,0.433,0.696,1.137c-0.352,1.104-1.034,2.025-1.701,2.95
	c-0.714,0.987-1.477,1.941-2.185,2.934C22.378,8.47,22.43,8.927,23.237,9.715L23.237,9.715z"/>
</svg>
