
<svg version="1.1" id="Шар_1" 	 xmlns="http://www.w3.org/2000/svg" xmlns:xlink="http://www.w3.org/1999/xlink" x="0px" y="0px" width="16.958px"
	 height="16.334px" viewBox="0 0 16.958 16.334" enable-background="new 0 0 16.958 16.334" xml:space="preserve">
<path fill="#231F20" d="M10.519,4.219V3.368C9.708,3.253,9.153,3.065,9.092,2.851V1.354c0-0.375,1.481-0.679,3.309-0.679
	c1.827,0,3.31,0.304,3.31,0.679v1.497c-0.062,0.214-0.615,0.402-1.427,0.517v0.851c1.298,0.149,2.185,0.446,2.185,0.789v9.855
	c0,0.492-1.82,0.892-4.067,0.892s-4.068-0.399-4.068-0.892V5.008C8.333,4.665,9.22,4.368,10.519,4.219"/>
<path fill="none" stroke="#010202" stroke-miterlimit="10" d="M10.519,4.219V3.368C9.708,3.253,9.153,3.065,9.092,2.851V1.354
	c0-0.375,1.481-0.679,3.309-0.679c1.827,0,3.31,0.304,3.31,0.679v1.497c-0.062,0.214-0.615,0.402-1.427,0.517v0.851
	c1.298,0.149,2.185,0.446,2.185,0.789v9.855c0,0.492-1.82,0.892-4.067,0.892s-4.068-0.399-4.068-0.892V5.008
	C8.333,4.665,9.22,4.368,10.519,4.219z"/>
<path fill="#231F20" d="M2.018,7.579V6.976C1.444,6.894,1.051,6.762,1.007,6.608V5.548c0-0.265,1.05-0.481,2.345-0.481
	c1.296,0,2.346,0.216,2.346,0.481v1.061C5.654,6.762,5.262,6.894,4.687,6.976v0.603c0.92,0.105,1.549,0.316,1.549,0.559v6.985
	c0,0.349-1.291,0.631-2.884,0.631c-1.592,0-2.883-0.282-2.883-0.631V8.138C0.469,7.895,1.098,7.684,2.018,7.579"/>
<path fill="none" stroke="#010202" stroke-miterlimit="10" d="M2.018,7.579V6.976C1.444,6.894,1.051,6.762,1.007,6.608V5.548
	c0-0.265,1.05-0.481,2.345-0.481c1.296,0,2.346,0.216,2.346,0.481v1.061C5.654,6.762,5.262,6.894,4.687,6.976v0.603
	c0.92,0.105,1.549,0.316,1.549,0.559v6.985c0,0.349-1.291,0.631-2.884,0.631c-1.592,0-2.883-0.282-2.883-0.631V8.138
	C0.469,7.895,1.098,7.684,2.018,7.579z"/>
</svg>
