
<svg version="1.1" id="Шар_1" 	 xmlns="http://www.w3.org/2000/svg" xmlns:xlink="http://www.w3.org/1999/xlink" x="0px" y="0px" width="15.896px"
	 height="11.08px" viewBox="0 0 15.896 11.08" enable-background="new 0 0 15.896 11.08" xml:space="preserve">
<path fill-rule="evenodd" clip-rule="evenodd" d="M15.622,1.783c-0.195-0.847-0.886-1.471-1.72-1.563C11.932,0,9.938-0.001,7.951,0
	C5.964-0.001,3.968,0,1.997,0.22C1.166,0.313,0.474,0.937,0.28,1.783C0.003,2.985,0,4.301,0,5.54s0,2.555,0.277,3.758
	c0.194,0.845,0.885,1.47,1.718,1.563c1.971,0.22,3.966,0.222,5.952,0.22c1.989,0.002,3.983,0,5.954-0.22
	c0.832-0.093,1.523-0.718,1.719-1.563c0.277-1.203,0.277-2.519,0.277-3.758S15.898,2.985,15.622,1.783 M5.897,8.008V2.751
	c1.684,0.879,3.358,1.751,5.054,2.636C9.26,6.264,7.586,7.132,5.897,8.008"/>
</svg>
