<?xml version="1.0" encoding="utf-8"?>
<!-- Generator: Adobe Illustrator 16.0.0, SVG Export Plug-In . SVG Version: 6.00 Build 0)  -->
<!DOCTYPE svg PUBLIC "-//W3C//DTD SVG 1.1//EN" "http://www.w3.org/Graphics/SVG/1.1/DTD/svg11.dtd">
<svg version="1.1" id="Слой_1" xmlns="http://www.w3.org/2000/svg" xmlns:xlink="http://www.w3.org/1999/xlink" x="0px" y="0px"
	 width="21px" height="25.199px" viewBox="0 0 21 25.199" enable-background="new 0 0 21 25.199" xml:space="preserve">
<g>
	<path id="YouTube_1_" fill="#272727" d="M17.763,18.432h-1.382l0.006-0.803c0-0.357,0.293-0.648,0.651-0.648h0.088
		c0.358,0,0.652,0.291,0.652,0.648L17.763,18.432z M12.575,16.711c-0.351,0-0.638,0.235-0.638,0.524v3.907
		c0,0.287,0.287,0.522,0.638,0.522c0.352,0,0.641-0.235,0.641-0.522v-3.907C13.216,16.946,12.927,16.711,12.575,16.711z M21,14.526
		v7.433c0,1.781-1.546,3.24-3.436,3.24H3.436C1.546,25.199,0,23.74,0,21.959v-7.433c0-1.783,1.546-3.243,3.436-3.243h14.129
		C19.454,11.284,21,12.743,21,14.526z M4.379,22.766l-0.002-7.829h1.752v-1.159L1.461,13.77v1.141l1.456,0.004v7.852H4.379z
		 M9.629,16.103h-1.46v4.181c0,0.605,0.036,0.907-0.003,1.013c-0.119,0.325-0.652,0.669-0.861,0.036
		c-0.034-0.111-0.003-0.446-0.004-1.02l-0.006-4.21H5.843l0.004,4.142c0.002,0.637-0.014,1.11,0.006,1.326
		c0.035,0.38,0.022,0.822,0.375,1.075c0.656,0.473,1.916-0.07,2.231-0.747l-0.004,0.863l1.174,0.002V16.103L9.629,16.103z
		 M14.3,20.891l-0.004-3.48c-0.001-1.326-0.992-2.119-2.339-1.047l0.005-2.587l-1.458,0.003l-0.007,8.929l1.2-0.018l0.108-0.557
		C13.339,23.54,14.302,22.576,14.3,20.891z M18.869,20.428l-1.095,0.007c0,0.043-0.002,0.093-0.003,0.148v0.61
		c0,0.327-0.27,0.593-0.598,0.593h-0.215c-0.328,0-0.6-0.266-0.6-0.593v-0.068v-0.671v-0.868h2.508v-0.943
		c0-0.689-0.017-1.379-0.074-1.773c-0.181-1.246-1.931-1.445-2.815-0.806c-0.277,0.198-0.489,0.466-0.611,0.824
		c-0.125,0.358-0.188,0.849-0.188,1.47v2.076C15.18,23.883,19.369,23.395,18.869,20.428z M13.253,9.164
		c0.076,0.184,0.192,0.333,0.352,0.445c0.156,0.11,0.356,0.165,0.598,0.165c0.21,0,0.396-0.057,0.559-0.174s0.298-0.292,0.409-0.524
		l-0.026,0.573h1.627V2.727h-1.281v5.387c0,0.292-0.24,0.531-0.533,0.531s-0.534-0.239-0.534-0.531V2.727h-1.337v4.669
		c0,0.594,0.011,0.991,0.029,1.192C13.133,8.788,13.178,8.979,13.253,9.164z M8.321,5.255c0-0.664,0.055-1.183,0.165-1.557
		c0.11-0.373,0.31-0.672,0.599-0.898c0.287-0.228,0.655-0.341,1.104-0.341c0.376,0,0.699,0.074,0.969,0.219
		c0.27,0.146,0.479,0.334,0.624,0.568c0.146,0.234,0.247,0.474,0.301,0.72c0.056,0.25,0.081,0.626,0.081,1.133V6.85
		c0,0.642-0.025,1.114-0.075,1.414c-0.05,0.301-0.156,0.581-0.32,0.842c-0.163,0.259-0.373,0.451-0.627,0.575
		c-0.257,0.124-0.551,0.186-0.884,0.186c-0.37,0-0.683-0.051-0.94-0.159C9.058,9.603,8.858,9.442,8.716,9.229
		C8.572,9.015,8.472,8.756,8.41,8.453S8.319,7.694,8.319,7.087L8.321,5.255L8.321,5.255z M9.596,8.005
		c0,0.393,0.291,0.712,0.647,0.712c0.355,0,0.646-0.319,0.646-0.712V4.32c0-0.392-0.29-0.711-0.646-0.711
		c-0.356,0-0.647,0.32-0.647,0.711V8.005z M5.092,9.866h1.534l0.002-5.308l1.815-4.548H6.763L5.798,3.387L4.82,0H3.158l1.93,4.56
		L5.092,9.866z"/>
</g>
</svg>
