
<svg version="1.1" xmlns="http://www.w3.org/2000/svg" xmlns:xlink="http://www.w3.org/1999/xlink" x="0px" y="0px"
	 viewBox="0 0 96 96" style="enable-background:new 0 0 96 96;" xml:space="preserve">
<style type="text/css">
	.st0{fill:#A3A3A3;}
	.st1{fill:#FFC847;}
	.st2{display:none;}
</style>
<g id="laces">
	<g>
		<path class="st0" d="M47.2,45.9c4.9,1.6,8.6,4.3,5.6,9.8c-2.4,4.4-6.4,7.9-9.8,11.4c-2.1,2.3-5.4,5.3-5.8,8.6
			c-0.3,3.2,2.2,6.8,5.4,7.3c3.8,0.6,7.5-2.4,10.2-4.6c3.9-3.3,7.4-7.5,9.9-12c5.9-10.9-3.7-23.9-15.4-23.1c0,0,0,0,0,0L47.2,45.9z
			 M61.9,58.5c0.5,5.2-2.5,9.2-5.6,13c-2.9,3.5-6.4,7-10.6,8.7c-4.5,1.8-7.5-2.9-5.2-6.6c4-6.5,10.9-10.7,14.6-17.4
			c2.5-4.6,0.8-7.9-2.4-10.1C57.9,47.7,61.3,52.4,61.9,58.5L61.9,58.5z M34.1,41.6"/>
		<path class="st1" d="M39.6,36.7c-4.4,0-8,3.6-8,8s3.6,8,8,8s8-3.6,8-8S44,36.7,39.6,36.7z M39.6,49.7c-2.8,0-5-2.2-5-5
			c0-2.8,2.2-5,5-5c2.8,0,5,2.2,5,5C44.6,47.5,42.3,49.7,39.6,49.7z"/>
	</g>
</g>
<g id="necklace">
</g>
<g id="amulets">
</g>
<g id="crosses">
</g>
<g id="pendants">
</g>
<g id="chains">
</g>
<g id="bracelets">
</g>
<g id="wedding-rings">
</g>
<g id="earring">
</g>
<g id="men-rings">
</g>
<g id="women-rings">
</g>
<g id="brilliants-jewelery">
</g>
</svg>
