
<svg version="1.1" xmlns="http://www.w3.org/2000/svg" xmlns:xlink="http://www.w3.org/1999/xlink" x="0px" y="0px"
	 viewBox="0 0 96 96" style="enable-background:new 0 0 96 96;" xml:space="preserve">
<style type="text/css">
	.st0{fill:#A3A3A3;}
	.st1{fill:#FFC847;}
	.st2{display:none;}
</style>
<g id="laces">
</g>
<g id="necklace">
</g>
<g id="amulets">
</g>
<g id="crosses">
	<g>
		<path class="st1" d="M48.9,27.2L48.3,19c0-0.2-0.1-0.3-0.3-0.3c-0.2,0-0.3,0.1-0.3,0.3l-0.6,8.2c0.3,0,0.6-0.1,0.9-0.1
			C48.3,27.1,48.6,27.1,48.9,27.2L48.9,27.2z M48.9,27.2"/>
		<path class="st1" d="M45.4,27.6l-3.2-7.7c-0.1-0.1-0.2-0.2-0.4-0.2c-0.2,0-0.2,0.2-0.2,0.4l2,8.5C44.2,28.1,44.8,27.8,45.4,27.6
			L45.4,27.6z M45.4,27.6"/>
		<path class="st1" d="M41.1,30.9c0,0,0.1,0.1,0.1,0.1c0.1,0.1,0.2,0.2,0.3,0.3c0.3-0.6,0.7-1.2,1.1-1.7l-6-7
			c-0.1-0.1-0.3-0.1-0.4,0c-0.1,0.1-0.2,0.3-0.1,0.4L41.1,30.9z M41.1,30.9"/>
		<path class="st1" d="M39.1,33.4c0,0,0.1,0.1,0.1,0.1c0.1,0,0.2,0.1,0.3,0.1c0.4-0.4,0.8-0.8,1.3-1.1c0-0.3-0.2-0.6-0.5-0.8l-8-4.9
			c-0.1-0.1-0.3,0-0.4,0.1c-0.1,0.1-0.1,0.3,0,0.4L39.1,33.4z M39.1,33.4"/>
		<path class="st1" d="M29.2,32.8l8.6,3.6c0,0,0,0,0.1,0c0.2-0.7,0.4-1.3,0.8-1.9c-0.1,0-0.1-0.1-0.2-0.1l-9.1-2.2
			c-0.2,0-0.3,0.1-0.4,0.2C29,32.6,29.1,32.8,29.2,32.8L29.2,32.8z M29.2,32.8"/>
		<path class="st1" d="M37.1,38.5c0.3,0,0.5,0,0.8,0c0-0.3,0-0.5,0-0.8c0,0,0-0.1,0-0.1c0,0-0.1,0-0.1,0l-9.3,0.7
			c-0.2,0-0.3,0.1-0.3,0.3c0,0.2,0.1,0.3,0.3,0.3l5.5,0.4C34.8,38.8,35.9,38.5,37.1,38.5L37.1,38.5z M37.1,38.5"/>
		<path class="st1" d="M67.6,38.3l-9.3-0.7c0,0-0.1,0-0.1,0c0,0.1,0,0.1,0,0.2c0,0.3,0,0.5,0,0.8c0.3,0,0.5,0,0.8,0
			c1.2,0,2.2,0.3,3.2,0.9l5.5-0.4c0.2,0,0.3-0.1,0.3-0.3C67.9,38.4,67.8,38.3,67.6,38.3L67.6,38.3z M67.6,38.3"/>
		<path class="st1" d="M57.3,34.5C57.3,34.5,57.3,34.5,57.3,34.5c0.3,0.6,0.6,1.2,0.7,1.9c0,0,0,0,0.1,0l8.6-3.6
			c0.1-0.1,0.2-0.2,0.2-0.4c0-0.2-0.2-0.2-0.4-0.2l-9.1,2.2C57.4,34.4,57.4,34.5,57.3,34.5L57.3,34.5z M57.3,34.5"/>
		<path class="st1" d="M55.6,31.8c-0.2,0.2-0.3,0.4-0.4,0.7c0.5,0.3,0.9,0.7,1.3,1.1c0.1,0,0.3-0.1,0.4-0.2l7.1-6.1
			c0.1-0.1,0.1-0.3,0-0.4c-0.1-0.1-0.3-0.2-0.4-0.1l-8,4.9C55.7,31.7,55.6,31.8,55.6,31.8L55.6,31.8z M55.6,31.8"/>
		<path class="st1" d="M54.5,31.3c0.2-0.1,0.3-0.2,0.4-0.4l4.9-8c0.1-0.1,0-0.3-0.1-0.4c-0.1-0.1-0.3-0.1-0.4,0l-6,7
			C53.8,30,54.2,30.6,54.5,31.3L54.5,31.3z M54.5,31.3"/>
		<path class="st1" d="M54.4,20c0-0.2-0.1-0.3-0.2-0.4c-0.2,0-0.3,0-0.4,0.2l-3.2,7.7c0.6,0.2,1.2,0.6,1.7,1L54.4,20z M54.4,20"/>
		<path class="st0" d="M62.5,44.7h-0.6v-0.2c0-1.6-1.3-2.9-2.9-2.9c-1.6,0-2.9,1.3-2.9,2.9v0.2h-4.1v-4.1h0.2c1.6,0,2.9-1.3,2.9-2.9
			c0-1.6-1.3-2.9-2.9-2.9h-0.2v-0.6c0-2.2-1.8-3.9-3.9-3.9c-2.2,0-3.9,1.8-3.9,3.9v0.6h-0.2c-1.6,0-2.9,1.3-2.9,2.9
			c0,1.6,1.3,2.9,2.9,2.9h0.2v4.1H40v-0.2c0-1.6-1.3-2.9-2.9-2.9c-1.6,0-2.9,1.3-2.9,2.9v0.2h-0.6c-2.2,0-3.9,1.8-3.9,3.9
			c0,2.2,1.8,3.9,3.9,3.9h0.6v0.2c0,1.6,1.3,2.9,2.9,2.9c1.6,0,2.9-1.3,2.9-2.9v-0.2h4.1v19.7h-0.2c-1.6,0-2.9,1.3-2.9,2.9
			c0,1.6,1.3,2.9,2.9,2.9h0.2v0.6c0,2.2,1.8,3.9,3.9,3.9c2.2,0,3.9-1.8,3.9-3.9v-0.6h0.2c1.6,0,2.9-1.3,2.9-2.9
			c0-1.6-1.3-2.9-2.9-2.9h-0.2V52.6H56v0.2c0,1.6,1.3,2.9,2.9,2.9c1.6,0,2.9-1.3,2.9-2.9v-0.2h0.6c2.2,0,3.9-1.8,3.9-3.9
			C66.4,46.5,64.6,44.7,62.5,44.7L62.5,44.7z M62.5,44.7"/>
	</g>
</g>
<g id="pendants">
</g>
<g id="chains">
</g>
<g id="bracelets">
</g>
<g id="wedding-rings">
</g>
<g id="earring">
</g>
<g id="men-rings">
</g>
<g id="women-rings">
</g>
<g id="brilliants-jewelery">
</g>
</svg>
