
<svg version="1.1" xmlns="http://www.w3.org/2000/svg" xmlns:xlink="http://www.w3.org/1999/xlink" x="0px" y="0px"
	 viewBox="0 0 96 96" style="enable-background:new 0 0 96 96;" xml:space="preserve">
<style type="text/css">
	.st0{fill:#A3A3A3;}
	.st1{fill:#FFC847;}
	.st2{display:none;}
</style>
<g id="laces">
</g>
<g id="necklace">
</g>
<g id="amulets">
</g>
<g id="crosses">
</g>
<g id="pendants">
</g>
<g id="chains">
</g>
<g id="bracelets">
</g>
<g id="wedding-rings">
</g>
<g id="earring">
</g>
<g id="men-rings">
</g>
<g id="women-rings">
	<g>
		<path class="st1" d="M47.5,33.9c0.1,0.1,0.3,0.2,0.5,0.2c0.2,0,0.3-0.1,0.5-0.2c1.3-1.3,4.8-4.8,4.9-4.9c1.5-1.5,1.5-3.9,0-5.4
			c-0.7-0.7-1.7-1.1-2.7-1.1c-1,0-1.9,0.4-2.7,1.1c-0.7-0.7-1.7-1.1-2.7-1.1c-1,0-2,0.4-2.7,1.1c-1.5,1.5-1.5,3.9,0,5.4
			C42.7,29.1,46.2,32.6,47.5,33.9L47.5,33.9z M47.5,35.6"/>
		<path class="st0" d="M57.8,28.8l-4.9,4.7C63.8,35.8,72,45.4,72,57c0,13.3-10.7,24-24,24c-13.3,0-24-10.7-24-24
			c0-11.6,8.2-21.3,19.1-23.5l-4.9-4.7C27.6,32.7,20,43,20,55c0,15.5,12.5,28,28,28c15.5,0,28-12.5,28-28C76,43,68.5,32.8,57.8,28.8
			z"/>
	</g>
</g>
<g id="brilliants-jewelery">
</g>
</svg>
