<svg version="1.1" id="Layer_1" xmlns="http://www.w3.org/2000/svg" xmlns:xlink="http://www.w3.org/1999/xlink" x="0px" y="0px" width="138.1px"
	 height="51.122px" viewBox="0 0 138.1 51.122" enable-background="new 0 0 138.1 51.122" xml:space="preserve">
<g>
	<g>
		<path fill="#502e17" d="M0,27.553v13.076h14.17v-2.486H3.148v-3.148H9.51v-2.316H3.148v-2.811h10.869v-2.314H0L0,27.553z M18.836,27.553h-3.15
			V37.62c0,0.648,0.029,1.76,0.742,2.377c0.492,0.432,1.328,0.633,2.654,0.633h8.646c1.51,0,2.285-0.262,2.684-0.633
			c0.342-0.309,0.742-0.957,0.742-2.348V27.553h-3.148v10.59h-9.17V27.553L18.836,27.553z M33.873,27.553v13.076h3.148v-4.895h3.057
			l5.406,4.895h4.568l-6.146-4.895h1.73c0.68,0,1.637-0.123,2.193-0.494c0.801-0.555,0.863-1.449,0.863-2.006v-3.15
			c0-0.555-0.063-1.42-0.773-1.977c-0.336-0.277-0.986-0.555-2.283-0.555H33.873L33.873,27.553z M44.34,29.868
			c0.309,0,0.801,0.031,1.08,0.248c0.311,0.248,0.311,0.586,0.311,0.801v1.453c0,0.279,0,0.617-0.342,0.836
			c-0.123,0.059-0.4,0.215-1.111,0.215h-7.256v-3.553H44.34L44.34,29.868z M50.545,37.528c0,0.492,0,1.758,0.648,2.406
			c0.496,0.494,1.484,0.695,2.75,0.695h10.096c0.896,0,2.102-0.045,2.748-0.725c0.59-0.619,0.65-1.607,0.65-2.225v-7.039
			c0-0.557,0-1.791-0.65-2.408c-0.709-0.68-2.133-0.68-2.748-0.68H53.818c-1.234,0-2.098,0.186-2.563,0.617
			c-0.711,0.648-0.711,1.945-0.711,2.471V37.528L50.545,37.528z M53.697,38.143v-8.121h10.588v8.121H53.697L53.697,38.143z
			 M77.488,35.364h5.154v2.779h-9.939v-8.121h9.939v1.389l3.152-0.521v-0.402c0-0.465-0.033-1.699-0.773-2.348
			c-0.521-0.463-1.574-0.586-2.625-0.586h-9.447c-1.668,0-2.346,0.338-2.656,0.617c-0.709,0.617-0.74,1.637-0.74,2.471v6.887
			c0,0.832,0.031,1.852,0.74,2.469c0.494,0.432,1.328,0.633,2.656,0.633h9.447c1.73,0,2.379-0.354,2.688-0.633
			c0.648-0.584,0.711-1.666,0.711-2.469v-4.479h-8.307V35.364L77.488,35.364z M87.832,37.528c0,0.492,0,1.758,0.646,2.406
			c0.498,0.494,1.482,0.695,2.748,0.695h10.1c0.895,0,2.1-0.045,2.744-0.725c0.59-0.619,0.648-1.607,0.648-2.225v-7.039
			c0-0.557,0-1.791-0.648-2.408c-0.711-0.68-2.127-0.68-2.744-0.68H91.105c-1.238,0-2.102,0.186-2.566,0.617
			c-0.707,0.648-0.707,1.945-0.707,2.471V37.528L87.832,37.528z M90.98,38.143v-8.121h10.592v8.121H90.98L90.98,38.143z
			 M110.465,27.553h-3.32v13.076h13.02l0.443-2.486h-10.143V27.553L110.465,27.553z M121.459,27.553v13.076h8.002
			c1.508,0,5.031-0.076,7.037-2.145c0.896-0.924,1.602-2.41,1.602-4.449c0-2.529-1.082-3.98-1.881-4.691
			c-0.863-0.77-2.598-1.791-5.959-1.791H121.459L121.459,27.553z M124.611,38.143v-8.275h5.68c1.082,0,2.348,0.123,3.336,0.928
			c0.865,0.707,1.201,1.729,1.201,3.088c0,1.422-0.406,2.313-0.865,2.84c-0.99,1.141-3.053,1.42-4.6,1.42H124.611L124.611,38.143z"
			/>
		<path fill="#502e17" d="M29.18,46.276v4.121h-2.57v-1.541l-0.914,0.182v1.004c0,0.195,0.023,0.617,0.264,0.846
			c0.195,0.184,0.547,0.234,0.926,0.234h2.102c0.557,0,0.779-0.18,0.857-0.244c0.227-0.229,0.25-0.631,0.25-0.836v-3.766H29.18
			L29.18,46.276z M35.967,46.276v4.846h4.92v-0.725h-4.012v-1.439h2.391v-0.719h-2.391v-1.244h3.969v-0.719H35.967L35.967,46.276z
			 M48.859,46.276l-1.428,3.697l-1.336-3.697h-0.949l1.873,4.846h0.688l1.426-3.613l1.359,3.613h0.674l1.854-4.846h-0.826
			l-1.336,3.697l-1.393-3.697H48.859L48.859,46.276z M58.031,46.276v4.846h4.92v-0.725h-4.006v-1.439h2.385v-0.719h-2.385v-1.244
			h3.963v-0.719H58.031L58.031,46.276z M68.07,46.276v4.846h4.686v-0.725h-3.773v-4.121H68.07L68.07,46.276z M77.797,46.276v4.846
			h4.682v-0.725h-3.77v-4.121H77.797L77.797,46.276z M87.518,46.276v4.846h4.924v-0.725H88.43v-1.439h2.391v-0.719H88.43v-1.244
			h3.965v-0.719H87.518L87.518,46.276z M97.557,46.276v4.846h0.916v-1.877h1.326l1.93,1.877h1.223l-2.148-1.912h0.654
			c0.238,0,0.578-0.014,0.816-0.285c0.184-0.207,0.195-0.492,0.195-0.664v-1.049c0-0.139-0.012-0.479-0.215-0.695
			c-0.219-0.23-0.598-0.24-0.768-0.24H97.557L97.557,46.276z M101.043,46.995c0.115,0,0.273,0,0.377,0.092
			c0.123,0.104,0.137,0.262,0.137,0.398v0.605c0,0.113-0.023,0.252-0.1,0.334c-0.105,0.1-0.291,0.1-0.379,0.1h-2.605v-1.529H101.043
			L101.043,46.995z M112.178,46.276l-1.84,2.1l-1.928-2.1h-1.109l2.521,2.727v2.119h0.916v-2.119l2.512-2.727H112.178
			L112.178,46.276z"/>
		<path fill="#502e17" d="M66.957,15.78l-5.766-7.416l5.766-0.002V5.517H58.98l2.104-2.673h5.873V0h-7.252l-4.34,5.505l11.592,14.91V15.78z
			 M73.066,5.517v2.845h2.506l-4.35,5.589V2.844h8.076L77.057,0h-8.676v22.245L81.379,5.53l0.018-0.013h-0.01H73.066z"/>
	</g>
</g>
</svg>
