
<svg version="1.1" id="Шар_1" 	 xmlns="http://www.w3.org/2000/svg" xmlns:xlink="http://www.w3.org/1999/xlink" x="0px" y="0px" width="16.956px"
	 height="16.08px" viewBox="0 0 16.956 16.08" enable-background="new 0 0 16.956 16.08" xml:space="preserve">
<path fill="none" stroke="#9b9ea7" stroke-miterlimit="10" d="M10.505,4.044V3.193C9.695,3.078,9.14,2.89,9.079,2.676V1.179
	c0-0.375,1.48-0.679,3.309-0.679s3.311,0.304,3.311,0.679v1.497c-0.063,0.214-0.616,0.402-1.428,0.517v0.851
	c1.299,0.149,2.186,0.446,2.186,0.789v9.855c0,0.492-1.82,0.892-4.068,0.892c-2.247,0-4.067-0.399-4.067-0.892V4.833
	C8.32,4.49,9.207,4.193,10.505,4.044z"/>
<path fill="none" stroke="#9b9ea7" stroke-miterlimit="10" d="M2.005,7.404V6.801C1.431,6.719,1.038,6.587,0.994,6.434V5.373
	c0-0.265,1.05-0.481,2.345-0.481c1.296,0,2.346,0.216,2.346,0.481v1.061C5.641,6.587,5.249,6.719,4.674,6.801v0.603
	c0.92,0.105,1.549,0.316,1.549,0.559v6.985c0,0.349-1.291,0.631-2.884,0.631c-1.592,0-2.883-0.282-2.883-0.631V7.963
	C0.456,7.72,1.085,7.509,2.005,7.404z"/>
</svg>
